<svg xmlns="http://www.w3.org/2000/svg" width="20.5" height="20.782" viewBox="0 0 20.5 20.782">
  <defs>
    <style>
      .cls-1 {
        fill: #fff;
        fill-rule: evenodd;
      }
    </style>
  </defs>
  <path id="search" class="cls-1" d="M1236.42,471.918a8.647,8.647,0,1,1-8.54,8.646A8.6,8.6,0,0,1,1236.42,471.918Zm-0.01,1.727a6.9,6.9,0,1,1-6.82,6.9A6.86,6.86,0,0,1,1236.41,473.645Zm11.71,17.547-5.7-5.762a0.837,0.837,0,0,0-1.2,0,0.858,0.858,0,0,0,0,1.221l5.69,5.763a0.85,0.85,0,0,0,1.21,0A0.878,0.878,0,0,0,1248.12,491.192Zm-6.38-10.068,5.43,5.5-1.79,1.813-2.93-2.971-2.45-.042Zm1.1,2-0.01-.08a0.85,0.85,0,1,1,1.7,0l0.01,0.08A0.85,0.85,0,1,1,1242.84,483.122Z" transform="translate(-1227.88 -471.906)"/>
</svg>
