<svg xmlns="http://www.w3.org/2000/svg" width="28.031" height="28" viewBox="0 0 28.031 28">
  <defs>
    <style>
      .cls-1 {
        fill: #424242;
        fill-rule: evenodd;
      }
    </style>
  </defs>
  <path id="形状_514" data-name="形状 514" class="cls-1" d="M304.443,892.985h-1.407v-12a0.985,0.985,0,0,0-.987-0.985h-5.063a0.983,0.983,0,0,0-.986.985v12h-0.98V867.2A1.208,1.208,0,0,0,293.811,866h-4.557a1.209,1.209,0,0,0-1.208,1.208v25.782h-1.011V875.871a1.71,1.71,0,0,0-1.711-1.709H281.74a1.709,1.709,0,0,0-1.71,1.709v17.114h-2.012V866.579A0.471,0.471,0,0,0,277.59,866a0.584,0.584,0,0,0-.583.584v26.833a0.584,0.584,0,0,0,.583.584h26.853a0.585,0.585,0,0,0,.584-0.584,0.471,0.471,0,0,0-.584-0.427h0Z" transform="translate(-277 -866)"/>
</svg>
