<svg xmlns="http://www.w3.org/2000/svg" width="14.03" height="14" viewBox="0 0 14.03 14">
  <defs>
    <style>
      .cls-1 {
        fill: #999;
        fill-rule: evenodd;
      }
    </style>
  </defs>
  <path id="形状_2" data-name="形状 2" class="cls-1" d="M1119.35,239.974a1.19,1.19,0,0,1,0,1.676,1.178,1.178,0,0,1-1.67,0l-4.83-4.835-4.84,4.835a1.178,1.178,0,0,1-1.67,0,1.19,1.19,0,0,1,0-1.676l4.83-4.837-4.83-4.835a1.191,1.191,0,0,1,0-1.677,1.179,1.179,0,0,1,1.67,0l4.84,4.835,5.13-5.138a1.183,1.183,0,0,1,1.67,1.677l-5.13,5.138,4.83,4.837h0Z" transform="translate(-1106 -228)"/>
</svg>
