<svg xmlns="http://www.w3.org/2000/svg" width="60" height="60" viewBox="0 0 60 60">
  <defs>
    <style>
      .cls-1 {
        fill: #4faff2;
        fill-rule: evenodd;
      }
    </style>
  </defs>
  <path id="圆角矩形_530_拷贝" data-name="圆角矩形 530 拷贝" class="cls-1" d="M799,1245.99a30,30,0,1,1,30-30,30.035,30.035,0,0,1-30,30h0Zm0-56.55a26.555,26.555,0,1,0,26.559,26.55A26.584,26.584,0,0,0,799,1189.44h0Zm-4.9,38.24a1.7,1.7,0,0,1-1.217-.51l-9.963-9.96a1.719,1.719,0,1,1,2.433-2.43l8.747,8.74,18.283-18.28a1.723,1.723,0,0,1,2.432,2.44l-19.5,19.49a1.694,1.694,0,0,1-1.216.51h0Z" transform="translate(-769 -1186)"/>
</svg>
