<svg xmlns="http://www.w3.org/2000/svg" xmlns:xlink="http://www.w3.org/1999/xlink" width="27" height="27" viewBox="0 0 27 27">
  <defs>
    <style>
      .cls-1 {
        filter: url(#filter);
      }

      .cls-2 {
        fill: #a0d5fc;
        fill-opacity: 0;
        stroke: #158fe4;
        stroke-linejoin: round;
        stroke-width: 2px;
      }

      .cls-3 {
        fill: #d4d4d4;
        fill-rule: evenodd;
      }
    </style>
    <filter id="filter" filterUnits="userSpaceOnUse">
      <feFlood result="flood" flood-color="#158fe4"/>
      <feComposite result="composite" operator="in" in2="SourceGraphic"/>
      <feBlend result="blend" in2="SourceGraphic"/>
    </filter>
  </defs>
  <g id="切换" class="cls-1">
    <circle id="椭圆_10" data-name="椭圆 10" class="cls-2" cx="13.5" cy="13.5" r="12.5"/>
    <path id="形状_16_拷贝" data-name="形状 16 拷贝" class="cls-3" d="M503.267,333.276l-0.039.042-0.014.014-0.027.027-0.013.028a0.459,0.459,0,0,0-.067.109h0l-0.02.042-0.013.028c-0.02.04-.027,0.082-0.047,0.122v0.028l-0.027.076v0.089l-0.013.055v0.055L503,334.046v0.082l0.027,0.084v0.02c0.02,0.04.027,0.075,0.047,0.117l0.013,0.04,0.02,0.035h0a0.476,0.476,0,0,0,.067.116l0.013,0.021,0.027,0.028,0.014,0.014,0.039,0.048,3.906,4.072a0.93,0.93,0,0,0,1.328,0,1,1,0,0,0,0-1.366l-2.3-2.385h8.864a1,1,0,0,0,.934-1.014,0.95,0.95,0,0,0-.934-0.97h-11.6l-0.112.154Zm-0.28.7h0v0h0Zm12.746-3.254,0.039-.042,0.014-.014,0.027-.027,0.013-.028a0.459,0.459,0,0,0,.067-0.109h0l0.02-.042,0.013-.028c0.02-.04.027-0.082,0.047-0.122v-0.028l0.027-.076v-0.089l0.013-.055v-0.055L516,329.954v-0.082l-0.027-.083v-0.021c-0.02-.04-0.027-0.075-0.047-0.116l-0.013-.041-0.02-.035h0a0.476,0.476,0,0,0-.067-0.116l-0.013-.021-0.027-.028-0.014-.014-0.039-.048-3.906-4.072a0.93,0.93,0,0,0-1.328,0,1,1,0,0,0,0,1.366l2.3,2.385h-8.864a1,1,0,0,0-.934,1.014,0.95,0.95,0,0,0,.934.97h11.6l0.112-.154Zm0.28-.7h0v0h0Z" transform="translate(-496 -319)"/>
  </g>
</svg>
