<svg xmlns="http://www.w3.org/2000/svg" width="15" height="15" viewBox="0 0 15 15">
  <defs>
    <style>
      .cls-1 {
        fill: #7c7c7c;
        fill-rule: evenodd;
      }
    </style>
  </defs>
  <path id="圆角矩形_2_拷贝" data-name="圆角矩形 2 拷贝" class="cls-1" d="M1278,251h7a4,4,0,0,1,4,4v7a4,4,0,0,1-4,4h-7a4,4,0,0,1-4-4v-7A4,4,0,0,1,1278,251Zm-2,11h4.3v-0.8h-3.18L1277,259h3v-1h-3l0.12-2.217h3.07v-0.792H1276V262Zm5.79,0h1.06v-2.833c0-.653-0.09-2.348-0.15-2.968h0.05l0.74,2.257,2.35,3.544h1.15v-7.01h-1.06v3.8c0,0.653.09,1.38,0.15,2h-0.05l-0.74-1.274-2.36-4.528h-1.14V262Z" transform="translate(-1274 -251)"/>
</svg>
