<svg xmlns="http://www.w3.org/2000/svg" width="13" height="18" viewBox="0 0 13 18">
  <defs>
    <style>
      .cls-1 {
        fill: #666;
        fill-rule: evenodd;
      }
    </style>
  </defs>
  <path id="_9" data-name="9" class="cls-1" d="M1281.5,124a6.378,6.378,0,0,1-6.5-6.25,6.078,6.078,0,0,1,1.3-3.739V111a5.2,5.2,0,0,1,10.4,0v3.011a6.078,6.078,0,0,1,1.3,3.739A6.378,6.378,0,0,1,1281.5,124Zm3.9-13a3.9,3.9,0,0,0-7.8,0v1.759a6.67,6.67,0,0,1,7.8,0V111Zm-3.9,9.25a0.637,0.637,0,0,1-.65-0.625v-2.5a0.65,0.65,0,0,1,1.3,0v2.5A0.637,0.637,0,0,1,1281.5,120.25Z" transform="translate(-1275 -106)"/>
</svg>
