<svg xmlns="http://www.w3.org/2000/svg" width="17.969" height="18" viewBox="0 0 17.969 18">
  <defs>
    <style>
      .cls-1 {
        fill: #666;
        fill-rule: evenodd;
      }
    </style>
  </defs>
  <path id="search_拷贝_2" data-name="search 拷贝 2" class="cls-1" d="M755.5,529.01a7.489,7.489,0,1,1-7.49,7.489A7.489,7.489,0,0,1,755.5,529.01Zm-0.014,1.5a5.979,5.979,0,1,1-5.98,5.979A5.979,5.979,0,0,1,755.482,530.506Zm10.266,15.2-4.992-4.991a0.748,0.748,0,0,0-1.058,1.057l4.992,4.992A0.748,0.748,0,0,0,765.748,545.705Zm-5.59-8.721L766,541l-2.652,2.315-2.573-2.573-2.141-.037Zm0.959,0.731-0.007-.069a0.749,0.749,0,1,1,1.5,0l0.006,0.069A0.748,0.748,0,0,1,761.117,537.715Z" transform="translate(-748 -529)"/>
</svg>
