<svg id="组_2" data-name="组 2" xmlns="http://www.w3.org/2000/svg" width="66" height="66" viewBox="0 0 66 66">
  <defs>
    <style>
      .cls-1 {
        fill: #525252;
        fill-rule: evenodd;
      }
    </style>
  </defs>
  <path id="矩形_25" data-name="矩形 25" class="cls-1" d="M781,295a33,33,0,1,0,33,33,33,33,0,0,0-33-33h0Zm0,63.792A30.793,30.793,0,1,1,811.793,328,30.792,30.792,0,0,1,781,358.793h0Z" transform="translate(-748 -295)"/>
  <path id="航班客座率icon" class="cls-1" d="M779.124,338.749a8.942,8.942,0,0,1,4.422-4.591,5.943,5.943,0,0,1-1.474-4.019,6.122,6.122,0,0,1,6.059-6.15c1.474,0,2.807.027,3.869,1.011V315c0-1.56-.351-2-1.9-2h-21.21c-1.559,0-1.886.413-1.886,1.967v27.309c0,1.56.164,1.724,1.722,1.724h14.089a13.2,13.2,0,0,1-2.377-1.232,3.432,3.432,0,0,1-1.31-4.019h0Zm16.715-.08a7.535,7.535,0,0,0-5.162-4.1,4.6,4.6,0,1,0-4.749.085,7.808,7.808,0,0,0-5,4.183,2.1,2.1,0,0,0,.819,2.459,12.194,12.194,0,0,0,6.555,1.888,12.5,12.5,0,0,0,6.8-2.052,2.115,2.115,0,0,0,.735-2.465h0ZM772,319h9a1,1,0,0,1,0,2h-9A1,1,0,0,1,772,319Zm0,7h4a1,1,0,0,1,0,2h-4A1,1,0,0,1,772,326Zm0,7h4a1,1,0,0,1,0,2h-4A1,1,0,0,1,772,333Z" transform="translate(-748 -295)"/>
</svg>
