<svg id="组_3" data-name="组 3" xmlns="http://www.w3.org/2000/svg" width="66" height="66" viewBox="0 0 66 66">
  <defs>
    <style>
      .cls-1 {
        fill: #525252;
        fill-rule: evenodd;
      }
    </style>
  </defs>
  <path id="收入icon" class="cls-1" d="M1197.95,331.335a10.72,10.72,0,0,1,2.65-3.891c-7.65-.276-13.6-2.312-13.6-5.487v3.481c0,2.8,4.63,5.129,10.95,5.9h0Zm4.41-5.9c0.32,0,.63-0.031.95-0.04a16.465,16.465,0,0,1,8-2.023,17.3,17.3,0,0,1,2.07.168c2.67-1.113,4.33-2.623,4.33-4.293v-2.062c0-3.418-6.87-6.188-15.35-6.188s-15.36,2.77-15.36,6.187v2.063c0,3.418,6.88,6.188,15.36,6.188h0Zm-3.62,14.287c-6.73-.519-11.74-2.48-11.74-5.393v3.481c0,3.417,6.88,6.187,15.36,6.187,0.29,0,.56-0.028.84-0.035a12.379,12.379,0,0,1-4.46-4.24h0Zm-1.03-2.232c-6.19-.8-10.71-3.108-10.71-5.868v-3.481c0,2.715,4.37,4.594,10.4,5.26a9.566,9.566,0,0,0-.16,1.314,9.224,9.224,0,0,0,.47,2.775h0ZM1208,341v-4l-0.94-1.965-3.01-4.223a2.967,2.967,0,0,1-.43-0.545,1.31,1.31,0,0,1-.18-0.725,1.612,1.612,0,0,1,.45-0.815,2.251,2.251,0,0,1,1.26-.4,2.147,2.147,0,0,1,.97.3,3.069,3.069,0,0,1,.69.564l3.42,4.974,3.75-5.01a2.6,2.6,0,0,1,1.66-.824,4.56,4.56,0,0,1,.62.072,1.467,1.467,0,0,1,.49.18,0.935,0.935,0,0,1,.36.357,1.757,1.757,0,0,1,.22.609,1.4,1.4,0,0,1-.45.984l-3.48,4.509L1212,337v6c-0.1,1.641-3.45.692-3,1a1.642,1.642,0,0,1-1-1v-2l0.16-.382Zm9-4h-13.93a1,1,0,1,1,0-2H1217A1,1,0,0,1,1217,337Zm-13.93,2H1217a1,1,0,0,1,0,2h-13.93A1,1,0,1,1,1203.07,339Z" transform="translate(-1169 -295)"/>
  <path id="矩形_25_拷贝_2" data-name="矩形 25 拷贝 2" class="cls-1" d="M1202,295a33,33,0,1,0,33,33,33,33,0,0,0-33-33h0Zm0,63.792A30.793,30.793,0,1,1,1232.79,328,30.788,30.788,0,0,1,1202,358.793h0Z" transform="translate(-1169 -295)"/>
</svg>
