<svg xmlns="http://www.w3.org/2000/svg" width="52" height="39" viewBox="0 0 52 39">
  <defs>
    <style>
      .cls-1 {
        fill: #777778;
        fill-rule: evenodd;
      }
    </style>
  </defs>
  <path id="line_拷贝_9" data-name="line 拷贝 9" class="cls-1" d="M586,1114c18.844,0,18,7,18,7v15c0,1.92-1.66,4-3,4H571a3.521,3.521,0,0,1-3-3v-17S569.262,1114,586,1114Zm0,1c16.056,0,17,6,17,6v15a3.555,3.555,0,0,1-3,3H572a3.555,3.555,0,0,1-3-3v-15S569.986,1115,586,1115Zm-15,26h30a3.553,3.553,0,0,1,3,3v4c0,0.07.393,5-18,5-17.467,0-18-4.86-18-5v-4A3.553,3.553,0,0,1,571,1141Zm1,1h28a3.776,3.776,0,0,1,3,3v3s-2.073,4-17,4c-15.015,0-17-4-17-4v-3A3.776,3.776,0,0,1,572,1142Zm-8-25c2.008,0,3,.99,3,3v23c0,2.01-.992,3-3,3s-4-1.65-4-5v-19C560,1118.92,561.992,1117,564,1117Zm0,1a1.864,1.864,0,0,1,2,2v23a1.968,1.968,0,0,1-2,2c-1.182,0-3-1.7-3-5v-18C561,1120.22,562.342,1118,564,1118Zm44-1c-2.008,0-3,.99-3,3v23c0,2.01.992,3,3,3s4-1.65,4-5v-19C612,1118.92,610.008,1117,608,1117Zm0,1a1.864,1.864,0,0,0-2,2v23a1.968,1.968,0,0,0,2,2c1.182,0,3-1.69,3-5v-18C611,1120.13,609.658,1118,608,1118Z" transform="translate(-560 -1114)"/>
</svg>
