<svg xmlns="http://www.w3.org/2000/svg" width="52" height="39.31" viewBox="0 0 52 39.31">
  <defs>
    <style>
      .cls-1 {
        fill: #158fe4;
        fill-rule: evenodd;
      }
    </style>
  </defs>
  <path id="line_拷贝_11" data-name="line 拷贝 11" class="cls-1" d="M740.219,1332.45c18.837,0,17.993,7.05,17.993,7.05v15.11c0,1.94-1.659,4.03-3,4.03H725.226a3.531,3.531,0,0,1-3-3.02v-17.13S723.488,1332.45,740.219,1332.45Zm-14.993,27.2h29.988a3.563,3.563,0,0,1,3,3.02v4.03c0,0.06.393,5.04-17.993,5.04-17.46,0-17.992-4.9-17.992-5.04v-4.03A3.563,3.563,0,0,1,725.226,1359.65Zm-7-24.18c2.008,0,3,.99,3,3.02v23.17c0,2.03-.991,3.02-3,3.02s-4-1.66-4-5.03v-19.14C714.23,1337.41,716.221,1335.47,718.228,1335.47Zm43.983,0c-2.008,0-3,.99-3,3.02v23.17c0,2.03.991,3.02,3,3.02s4-1.66,4-5.03v-19.14C766.209,1337.41,764.218,1335.47,762.211,1335.47Z" transform="translate(-714.219 -1332.44)"/>
</svg>
