<svg xmlns="http://www.w3.org/2000/svg" width="38" height="29" viewBox="0 0 38 29">
  <defs>
    <style>
      .cls-1 {
        fill: #f7ae72;
        fill-rule: evenodd;
      }
    </style>
  </defs>
  <path id="line_拷贝_28" data-name="line 拷贝 28" class="cls-1" d="M879,1553c13.309,0,13,5,13,5v11a3.282,3.282,0,0,1-3,3H869c-0.946,0-3-1.26-3-3v-12S867.178,1553,879,1553Zm-10.789,20.01h21.63a2.607,2.607,0,0,1,2.163,2.24v3s0.258,3.75-13,3.75c-13.019,0-12.952-3.77-12.952-3.75v-3A2.607,2.607,0,0,1,868.211,1573.01ZM863,1555a1.7,1.7,0,0,1,2,2v16c0,1.44-.582,3-2,3s-3-1.6-3-4v-13C860,1556.79,861.582,1555,863,1555Zm32,0a1.7,1.7,0,0,0-2,2v16c0,1.44.582,3,2,3s3-1.6,3-4v-13C898,1556.79,896.418,1555,895,1555Z" transform="translate(-860 -1553)"/>
</svg>
