<svg xmlns="http://www.w3.org/2000/svg" width="52" height="39.5" viewBox="0 0 52 39.5">
  <defs>
    <style>
      .cls-1 {
        fill: #9e9cec;
        fill-rule: evenodd;
      }
    </style>
  </defs>
  <path id="line_拷贝_23" data-name="line 拷贝 23" class="cls-1" d="M807.22,1394.36c18.836,0,17.992,7.09,17.992,7.09v15.2c0,1.94-1.873,4.35-3.212,4.35H792c-1.339,0-2.773-1.98-2.773-3.34v-17.22S790.488,1394.36,807.22,1394.36ZM792,1422h30c1.339,0,3.212,1.43,3.212,2.75v4.06c0,0.06.393,5.06-17.992,5.06-17.461,0-17.993-4.92-17.993-5.06v-4.06A3.057,3.057,0,0,1,792,1422Zm-6.772-24.6c2.008,0,3,1,3,3.04v23.3c0,2.04-.991,3.04-3,3.04s-4-1.68-4-5.07v-19.25C781.23,1399.35,783.221,1397.4,785.228,1397.4Zm43.983,0c-2.008,0-3,1-3,3.04v23.3c0,2.04.991,3.04,3,3.04s4-1.68,4-5.07v-19.25C833.209,1399.35,831.218,1397.4,829.211,1397.4Z" transform="translate(-781.219 -1394.38)"/>
</svg>
