<svg xmlns="http://www.w3.org/2000/svg" width="20" height="20" viewBox="0 0 20 20">
  <defs>
    <style>
      .cls-1 {
        fill: #525252;
        fill-rule: evenodd;
      }
    </style>
  </defs>
  <path id="圆角矩形_531" data-name="圆角矩形 531" class="cls-1" d="M240,596a10,10,0,1,0,10,10,10,10,0,0,0-10-10h0Zm-4.387,3.314a0.467,0.467,0,0,1,.667,0s2.447,2.452,2.447,2.452v0a0.493,0.493,0,0,1,0,.681v0s-0.853.865-.854,0.865l-3.132-3.136,0.872-.867h0Zm1.772,8.843c-4.35-4.448-3.335-7.166-2.877-7.737l3.142,3.133c-0.448.447-.014,1.083,0.476,1.689a15.539,15.539,0,0,0,2.2,2.2c1.058,0.861,1.609,1.242,2.036.814l3.064,3.059c-0.508.528-3.464,1.532-8.046-3.158h0Zm9.157,2.062,0,0s-0.868.865-.868,0.865l-3.072-3.067,0.866-.867a0.484,0.484,0,0,1,.684,0s2.4,2.383,2.4,2.383h0a0.48,0.48,0,0,1,0,.683h0Z" transform="translate(-230 -596)"/>
</svg>
