<svg xmlns="http://www.w3.org/2000/svg" width="82" height="82" viewBox="0 0 82 82">
  <defs>
    <style>
      .cls-1 {
        fill: #525252;
        fill-rule: evenodd;
      }
    </style>
  </defs>
  <path id="保险" class="cls-1" d="M553.349,1021.16a41,41,0,1,0,41,41,40.995,40.995,0,0,0-41-41h0Zm0,79.68a38.685,38.685,0,1,1,38.685-38.68,38.684,38.684,0,0,1-38.685,38.68h0Zm2.041-58.21v-1.44c0-1.28-.5-2.32-1.272-2.32-0.548,0-1.271,1.04-1.271,2.32v1.45c-11.5,1.22-21.629,10.58-21.623,21.93A2.856,2.856,0,0,0,534,1067h18v12c0.036,1.27-1.1,3.35-2.957,3.41a3.4,3.4,0,0,1-3.449-3.48,2.36,2.36,0,0,0-1.725-2.32c-1.332,0-1.966,1.09-1.954,2.37a6.3,6.3,0,0,0,2.131,4.89,7.623,7.623,0,0,0,5.1,2.03h0.024A6.756,6.756,0,0,0,556,1079v-12h19a2.291,2.291,0,0,0,2.207-2.43c-0.013-11.4-10.23-20.81-21.817-21.94h0Z" transform="translate(-512.344 -1021.16)"/>
</svg>
