<svg xmlns="http://www.w3.org/2000/svg" width="25.03" height="25.062" viewBox="0 0 25.03 25.062">
  <defs>
    <style>
      .cls-1 {
        fill: #525252;
        fill-rule: evenodd;
      }
    </style>
  </defs>
  <path id="椭圆_3_拷贝" data-name="椭圆 3 拷贝" class="cls-1" d="M1143.39,450.75a12.531,12.531,0,1,1-12.51,12.531A12.528,12.528,0,0,1,1143.39,450.75Zm-2.35,14.415a0.6,0.6,0,0,1-.27.5,3.661,3.661,0,0,1-.67.375c-0.27.12-.57,0.255-0.88,0.407a3.093,3.093,0,0,0-.86.619h-0.31a4.388,4.388,0,0,1-1.17-.138,2.822,2.822,0,0,1-.83-0.366,1.72,1.72,0,0,1-.52-0.513,1.145,1.145,0,0,1-.17-0.578,0.627,0.627,0,0,1,.36-0.553,6.184,6.184,0,0,1,.79-0.391,8.12,8.12,0,0,0,.79-0.375,0.576,0.576,0,0,0,.36-0.5,0.935,0.935,0,0,0-.2-0.569c-0.13-.173-0.27-0.371-0.43-0.595a4.2,4.2,0,0,1-.43-0.78,2.9,2.9,0,0,1-.19-1.148,4.492,4.492,0,0,1,.1-0.977,2.853,2.853,0,0,1,.32-0.829,1.729,1.729,0,0,1,.53-0.569,1.4,1.4,0,0,1,.77-0.211,2.208,2.208,0,0,1,.98.194,6.916,6.916,0,0,0-.1,1.221,7.271,7.271,0,0,0,.17,1.74,5.753,5.753,0,0,0,.43,1.237c-0.16.217-.31,0.42-0.46,0.611a1.1,1.1,0,0,0-.21.675,0.445,0.445,0,0,0,.23.366,3.1,3.1,0,0,0,.55.293c0.21,0.092.43,0.187,0.67,0.285a5.317,5.317,0,0,1,.64.309,1.755,1.755,0,0,1,.01.261h0Zm8.07-1.514a0.433,0.433,0,0,0,.19.326,2.481,2.481,0,0,0,.47.276,6.1,6.1,0,0,0,.61.253c0.22,0.082.42,0.167,0.61,0.26a2.016,2.016,0,0,1,.46.309,0.514,0.514,0,0,1,.19.4,0.9,0.9,0,0,1-.25.634,1.915,1.915,0,0,1-.65.464,3.91,3.91,0,0,1-.93.286,7.055,7.055,0,0,1-1.08.115,4.019,4.019,0,0,0-.98-0.481c-0.35-.114-0.67-0.216-0.98-0.309a4.62,4.62,0,0,1-.8-0.309,0.7,0.7,0,0,1-.4-0.5,0.745,0.745,0,0,1,.42-0.5,7.643,7.643,0,0,1,.78-0.365,7.707,7.707,0,0,0,.75-0.366,0.567,0.567,0,0,0,.33-0.487,0.922,0.922,0,0,0-.26-0.626c-0.17-.189-0.35-0.409-0.54-0.658a6.129,6.129,0,0,0,.43-1.352,8.259,8.259,0,0,0,.18-1.839,3.492,3.492,0,0,0-.03-0.456c-0.01-.153-0.03-0.3-0.05-0.457a1.372,1.372,0,0,1,.76-0.293,2.5,2.5,0,0,1,1.22.253,1.754,1.754,0,0,1,.69.626,2.153,2.153,0,0,1,.31.806,4.6,4.6,0,0,1,.07.789,2.5,2.5,0,0,1-.23,1.18,4.11,4.11,0,0,1-.52.774c-0.19.216-.37,0.418-0.52,0.6a0.909,0.909,0,0,0-.25.647h0Zm-4.57,1.725a0.779,0.779,0,0,0,.3.6,4.132,4.132,0,0,0,.76.5,10.008,10.008,0,0,0,.99.448,9.079,9.079,0,0,1,1,.463,3.409,3.409,0,0,1,.75.553,0.97,0.97,0,0,1,.3.708,0.7,0.7,0,0,1-.45.529,6.025,6.025,0,0,1-1.21.464,11.182,11.182,0,0,1-1.72.333,16.008,16.008,0,0,1-2,.122,15.723,15.723,0,0,1-2.08-.122,8.432,8.432,0,0,1-1.51-.326,2.947,2.947,0,0,1-.93-0.463,0.7,0.7,0,0,1-.31-0.521,0.968,0.968,0,0,1,.3-0.707,3.27,3.27,0,0,1,.75-0.546,9.8,9.8,0,0,1,.99-0.447c0.35-.137.68-0.281,0.98-0.431a3.322,3.322,0,0,0,.76-0.5,0.832,0.832,0,0,0,.3-0.642,1.658,1.658,0,0,0-.15-0.7,6.134,6.134,0,0,0-.39-0.659c-0.16-.222-0.33-0.464-0.52-0.724a6.883,6.883,0,0,1-.51-0.878,5.348,5.348,0,0,1-.39-1.123,6.366,6.366,0,0,1-.16-1.464,5.322,5.322,0,0,1,.68-2.872,2.3,2.3,0,0,1,2.09-1.066,4.05,4.05,0,0,1,1.87.359,2.63,2.63,0,0,1,1.04.92,3.13,3.13,0,0,1,.44,1.237,10.012,10.012,0,0,1,.08,1.326,6.663,6.663,0,0,1-.15,1.513,5.511,5.511,0,0,1-.38,1.106,5.929,5.929,0,0,1-.49.839c-0.17.243-.34,0.476-0.49,0.7a4.169,4.169,0,0,0-.38.684,1.805,1.805,0,0,0-.16.786h0Z" transform="translate(-1130.88 -450.75)"/>
</svg>
