<svg xmlns="http://www.w3.org/2000/svg" width="25.03" height="25.062" viewBox="0 0 25.03 25.062">
  <defs>
    <style>
      .cls-1 {
        fill: #525252;
        fill-rule: evenodd;
      }
    </style>
  </defs>
  <path id="icon" class="cls-1" d="M1143.39,268.75a12.531,12.531,0,1,1-12.51,12.531A12.528,12.528,0,0,1,1143.39,268.75Zm-2.81,9.571s-2.04-.718-1.02,1.079l2.7,3.055-5.7,2.368,1.64,0.973,3.87-.3,10.05-4.46a1.349,1.349,0,0,0,.26-1.4,1.432,1.432,0,0,0-1.35-.146l-3.68,1.4s-0.42.42-1.98-.3Zm-6.77,3.415-0.12.838,2.3,1.779,2.37-1.06Z" transform="translate(-1130.88 -268.75)"/>
</svg>
