<svg xmlns="http://www.w3.org/2000/svg" width="82" height="82" viewBox="0 0 82 82">
  <defs>
    <style>
      .cls-1 {
        fill: #525252;
        fill-rule: evenodd;
      }
    </style>
  </defs>
  <path id="行李" class="cls-1" d="M358.549,1021.16a41,41,0,1,0,41,41,40.995,40.995,0,0,0-41-41h0Zm0,79.68a38.685,38.685,0,1,1,38.685-38.68,38.684,38.684,0,0,1-38.685,38.68h0Zm11.72-50.03L370,1051v-4h-3v4H350v-4h-3v4l-0.174-.19A7.064,7.064,0,0,0,340,1058v20a7.045,7.045,0,0,0,7,7h1l-0.08.05a2.025,2.025,0,0,0,4.049,0L352,1085h13l0.129,0.05a2.025,2.025,0,0,0,4.049,0L369,1085h1a7.044,7.044,0,0,0,7-7v-20a6.985,6.985,0,0,0-6.731-7.19h0ZM350.511,1059a1.487,1.487,0,0,1,1.5,1.49v15.01a1.5,1.5,0,0,1-.752,1.3,1.546,1.546,0,0,1-1.5,0,1.5,1.5,0,0,1-.751-1.3v-15.01a1.5,1.5,0,0,1,1.5-1.49h0Zm15.984-1a1.536,1.536,0,0,1,1.5,1.57v15.85a1.5,1.5,0,1,1-3,0v-15.85a1.535,1.535,0,0,1,1.5-1.57h0ZM350,1043c0-1.95,2.046-3,4-3h9c1.954,0,4,1.05,4,3v2h3v-2c0-3.63-3.016-6.02-6.643-6.02h-9.616c-3.629,0-6.741,2.39-6.741,6.02v2h3v-2h0Z" transform="translate(-317.562 -1021.16)"/>
</svg>
