<svg xmlns="http://www.w3.org/2000/svg" width="21" height="17" viewBox="0 0 21 17">
  <defs>
    <style>
      .cls-1 {
        fill: #525252;
        fill-rule: evenodd;
      }
    </style>
  </defs>
  <path id="圆角矩形_531" data-name="圆角矩形 531" class="cls-1" d="M249.8,969H231.2a1.171,1.171,0,0,0-1.2,1.142v14.715A1.172,1.172,0,0,0,231.2,986h18.6a1.172,1.172,0,0,0,1.2-1.143V970.142A1.171,1.171,0,0,0,249.8,969h0Zm-8.875,12.353a0.817,0.817,0,0,1-.11.314,0.587,0.587,0,0,1-.288.141,5.225,5.225,0,0,1-.593.128q-0.818.13-1.644,0.2c-0.29.024-.569,0.043-0.838,0.059s-0.5.023-.709,0.023-0.438-.008-0.7-0.023-0.551-.036-0.825-0.059-0.563-.048-0.844-0.076c-0.256-.024-0.51-0.056-0.764-0.093q-0.348-.053-0.587-0.105a0.937,0.937,0,0,1-.3-0.1,0.922,0.922,0,0,1-.159-0.49,3.671,3.671,0,0,1,.037-1.05,0.831,0.831,0,0,1,.312-0.56,2.134,2.134,0,0,1,.593-0.3q0.347-.118.7-0.2a2.2,2.2,0,0,0,.642-0.262,1.929,1.929,0,0,0,.336-0.257,0.845,0.845,0,0,0,.171-0.233,0.565,0.565,0,0,0,.055-0.245c0-.086,0-0.183-0.012-0.292a0.553,0.553,0,0,0-.171-0.367c-0.1-.093-0.208-0.18-0.318-0.263a0.618,0.618,0,0,1-.153-0.2,2.2,2.2,0,0,1-.116-0.257c-0.036-.1-0.069-0.209-0.1-0.315a0.62,0.62,0,0,1-.147-0.07,0.666,0.666,0,0,1-.128-0.14A1.064,1.064,0,0,1,234.14,976a0.709,0.709,0,0,1-.049-0.309,0.624,0.624,0,0,1,.061-0.24,0.728,0.728,0,0,1,.134-0.21,4.859,4.859,0,0,1,.037-0.758,5.26,5.26,0,0,1,.153-0.682,2.125,2.125,0,0,1,.324-0.66,1.852,1.852,0,0,1,.44-0.454,2.25,2.25,0,0,1,.5-0.275,2.329,2.329,0,0,1,.514-0.134,3.8,3.8,0,0,1,.489-0.035,2.451,2.451,0,0,1,1.112.245,2.231,2.231,0,0,1,.722.525,2.074,2.074,0,0,1,.4.706,5.445,5.445,0,0,1,.19.729,4.317,4.317,0,0,1,.049.793,0.475,0.475,0,0,1,.11.129,0.916,0.916,0,0,1,.067.181,0.665,0.665,0,0,1,.006.274,0.88,0.88,0,0,1-.1.338,0.848,0.848,0,0,1-.146.2,0.4,0.4,0,0,1-.2.1c-0.029.106-.062,0.211-0.1,0.315a1.832,1.832,0,0,1-.122.257,0.552,0.552,0,0,1-.159.187c-0.058.048-.117,0.1-0.177,0.14a0.971,0.971,0,0,0-.141.123,0.637,0.637,0,0,0-.1.145,0.786,0.786,0,0,0-.067.2,1.594,1.594,0,0,0-.019.309,0.778,0.778,0,0,0,.08.309,0.907,0.907,0,0,0,.238.291,1.462,1.462,0,0,0,.459.245,4.08,4.08,0,0,0,.568.181,5.512,5.512,0,0,1,.6.181,2.112,2.112,0,0,1,.513.268,0.9,0.9,0,0,1,.324.42,2.584,2.584,0,0,1,.08.4,3.716,3.716,0,0,1,.03.472,2.618,2.618,0,0,1-.036.45h0Zm6.579-.363h-4a0.491,0.491,0,1,1,0-.982h4a0.491,0.491,0,1,1,0,.982h0Zm0-3h-4a0.492,0.492,0,1,1,0-.983h4a0.492,0.492,0,1,1,0,.983h0Zm0-2.989h-4a0.507,0.507,0,0,1,0-1.013h4a0.507,0.507,0,0,1,0,1.013h0Z" transform="translate(-230 -969)"/>
</svg>
