<svg xmlns="http://www.w3.org/2000/svg" width="21" height="21" viewBox="0 0 21 21">
  <defs>
    <style>
      .cls-1 {
        fill: #fff;
        fill-rule: evenodd;
      }
    </style>
  </defs>
  <path id="矩形_19" data-name="矩形 19" class="cls-1" d="M248.637,183.877l-0.791-.768a2.557,2.557,0,0,0-2.46.552c-1.7,1.728-3.977,4.047-3.977,4.047l-11.174-1.619-1.4,1.286,8.286,4.806-3.034,2.979-5.092.344-0.977.353,5.216,2.89L236.014,204l0.384-.987,0.324-4.89L248.64,186c0.82-.834,0-2.119,0-2.119h0m-8.474,11.37L244.3,203l1.1-1.241-1.143-10.264-4.092,3.756h0m0,0h0Z" transform="translate(-228 -183)"/>
</svg>
