<svg xmlns="http://www.w3.org/2000/svg" width="16.938" height="15.94" viewBox="0 0 16.938 15.94">
  <defs>
    <style>
      .cls-1 {
        fill: #158fe4;
        fill-rule: evenodd;
      }
    </style>
  </defs>
  <path id="定位飞机" class="cls-1" d="M613.884,4967.2c0.189,0.56.205,0.57,0.73,0.56,1.317-.03,2.636-0.07,3.953,0a4.159,4.159,0,0,1,2.092.56,0.792,0.792,0,0,1-.018,1.49,4.489,4.489,0,0,1-2.237.56c-1.259.02-2.519,0.03-3.778-.02a0.563,0.563,0,0,0-.687.33c-0.081.21-.021,0.25,0.168,0.24a2.081,2.081,0,0,1,.353,0,0.5,0.5,0,0,1,.524.61,0.48,0.48,0,0,1-.547.54,4.777,4.777,0,0,1-.846-0.01,0.427,0.427,0,0,0-.488.28c-0.663,1.32-1.344,2.62-2.008,3.93a1.225,1.225,0,0,1-.922.74c-0.6.11-.856-0.19-0.659-0.77,0.462-1.36.919-2.72,1.392-4.08a9.173,9.173,0,0,0,.341-1.58c0.039-.24-0.043-0.31-0.277-0.31-1.271-.02-2.542-0.05-3.809-0.17a0.363,0.363,0,0,0-.4.21c-0.225.4-.458,0.79-0.7,1.19a0.57,0.57,0,0,1-.778.26,0.348,0.348,0,0,1-.19-0.47c0.094-.41.165-0.83,0.282-1.24a0.315,0.315,0,0,0-.277-0.47,5,5,0,0,1-.534-0.18,0.386,0.386,0,0,1-.316-0.34,0.371,0.371,0,0,1,.3-0.35c0.209-.07.42-0.15,0.635-0.21a0.247,0.247,0,0,0,.207-0.36c-0.107-.42-0.193-0.85-0.289-1.27-0.045-.21-0.092-0.43.165-0.51a0.559,0.559,0,0,1,.727.15c0.25,0.41.5,0.83,0.737,1.25a0.45,0.45,0,0,0,.488.25,33.327,33.327,0,0,1,3.738-.15c0.263,0,.323-0.1.287-0.34a9.06,9.06,0,0,0-.4-1.75c-0.459-1.3-.9-2.61-1.341-3.91-0.194-.57.082-0.88,0.67-0.76a1.173,1.173,0,0,1,.867.65c0.683,1.34,1.386,2.67,2.069,4.01a0.422,0.422,0,0,0,.486.29,5.608,5.608,0,0,1,.916.01,0.567,0.567,0,0,1,.033,1.11c-0.209.03-.421,0.02-0.665,0.03h0Z" transform="translate(-604.25 -4961.09)"/>
</svg>
