<svg xmlns="http://www.w3.org/2000/svg" width="24.968" height="24.938" viewBox="0 0 24.968 24.938">
  <defs>
    <style>
      .cls-1 {
        fill: #424242;
        fill-rule: evenodd;
      }
    </style>
  </defs>
  <path id="行李_拷贝_3" data-name="行李 拷贝 3" class="cls-1" d="M627.924,794.736a12.48,12.48,0,1,0,12.483,12.48,12.482,12.482,0,0,0-12.483-12.48h0Zm0,23.307a10.827,10.827,0,1,1,10.831-10.827,10.828,10.828,0,0,1-10.831,10.827h0ZM634,805.29v6.655a1.019,1.019,0,0,1-.979,1.055h-0.978a1.019,1.019,0,0,1-.979-1.055L631,812h-6l-0.064-.055a1.019,1.019,0,0,1-.979,1.055h-0.978a1.019,1.019,0,0,1-.979-1.055V805.29a1.02,1.02,0,0,1,.979-1.056h0.978A0.853,0.853,0,0,1,625,805v4h6v-4a0.853,0.853,0,0,1,1.043-.766h0.978A1.02,1.02,0,0,1,634,805.29h0M626,808h4l0.187-3.007a1.814,1.814,0,0,1,1.787-1.808h0.761v-1.21a0.941,0.941,0,0,0-.9-0.975h-7.65a0.941,0.941,0,0,0-.9.975v1.21h0.749a1.982,1.982,0,0,1,1.8,1.956L626,808m-0.173-2.859h0Z" transform="translate(-615.438 -794.75)"/>
</svg>
