<svg xmlns="http://www.w3.org/2000/svg" width="24.937" height="24.938" viewBox="0 0 24.937 24.938">
  <defs>
    <style>
      .cls-1 {
        fill: #424242;
        fill-rule: evenodd;
      }
    </style>
  </defs>
  <path id="行李" class="cls-1" d="M549.907,794.736a12.48,12.48,0,1,0,12.484,12.48,12.481,12.481,0,0,0-12.484-12.48h0Zm0,23.307a10.827,10.827,0,1,1,10.83-10.827,10.829,10.829,0,0,1-10.83,10.827h0Zm3.568-14.28h-0.1v-1.072H552.45v1.072h-5.086v-1.072H546.44v1.072h-0.1a2.441,2.441,0,0,0-2.461,2.116v6.056a2.441,2.441,0,0,0,2.461,2.116h0.333v0.132a0.617,0.617,0,0,0,1.233,0v-0.132h4.006v0.132a0.617,0.617,0,0,0,1.233,0v-0.132h0.333a2.378,2.378,0,0,0,2.4-2.116v-6.057a2.378,2.378,0,0,0-2.4-2.115h0Zm-6.05,2.348a0.461,0.461,0,0,1,.463.462v4.64a0.463,0.463,0,1,1-.925,0v-4.64a0.462,0.462,0,0,1,.462-0.462h0Zm4.934,0a0.463,0.463,0,0,1,.463.462v4.64a0.463,0.463,0,1,1-.925,0v-4.64a0.462,0.462,0,0,1,.462-0.462h0Zm-5-4.337a1.288,1.288,0,0,1,1.079-1.3h2.928a1.288,1.288,0,0,1,1.079,1.3v0.207h0.924v-0.207a2.2,2.2,0,0,0-2-2.221h-2.928a2.2,2.2,0,0,0-2,2.221v0.207h0.924v-0.207h0Z" transform="translate(-537.438 -794.75)"/>
</svg>
