<svg xmlns="http://www.w3.org/2000/svg" width="18" height="17" viewBox="0 0 18 17">
  <defs>
    <style>
      .cls-1 {
        fill: #158fe4;
        fill-rule: evenodd;
      }
    </style>
  </defs>
  <path id="椭圆_2_拷贝" data-name="椭圆 2 拷贝" class="cls-1" d="M885,309.125v2.75a1.069,1.069,0,0,1-.337.8A0.808,0.808,0,0,1,884,313H868a0.81,0.81,0,0,1-.664-0.328,1.072,1.072,0,0,1-.336-0.8v-2.75a1.074,1.074,0,0,1,.336-0.8,1.128,1.128,0,0,1,.818-0.328h4.589l1.622,1.594a2.366,2.366,0,0,0,3.27,0L879.269,308h4.577a1.124,1.124,0,0,1,.817.328,1.071,1.071,0,0,1,.337.8h0Zm-2.906-6.668a0.664,0.664,0,0,1-.169.82l-5.384,5.25a0.768,0.768,0,0,1-1.082,0l-5.385-5.25a0.665,0.665,0,0,1-.168-0.82,0.719,0.719,0,0,1,.709-0.457H874v-6h4v6h3.385a0.72,0.72,0,0,1,.709.457h0Zm-1.938,8.82a0.721,0.721,0,0,0,0-1.054,0.768,0.768,0,0,0-1.082,0,0.723,0.723,0,0,0,0,1.054,0.768,0.768,0,0,0,1.082,0h0Zm3.077,0a0.721,0.721,0,0,0,0-1.054,0.767,0.767,0,0,0-1.081,0,0.721,0.721,0,0,0,0,1.054,0.767,0.767,0,0,0,1.081,0h0Z" transform="translate(-867 -296)"/>
</svg>
