<svg xmlns="http://www.w3.org/2000/svg" width="24.968" height="24.938" viewBox="0 0 24.968 24.938">
  <defs>
    <style>
      .cls-1 {
        fill: #424242;
        fill-rule: evenodd;
      }
    </style>
  </defs>
  <path id="行李_拷贝_2" data-name="行李 拷贝 2" class="cls-1" d="M588.924,794.736a12.48,12.48,0,1,0,12.483,12.48,12.482,12.482,0,0,0-12.483-12.48h0Zm0,23.307a10.827,10.827,0,1,1,10.831-10.827,10.828,10.828,0,0,1-10.831,10.827h0Zm-4.593-4.2h0a1.48,1.48,0,0,1-.852-0.26,0.951,0.951,0,0,1-.351-0.713,1.309,1.309,0,0,1,.279-0.984c0.255-.269,3.846-3.69,4.668-4.471L587.7,807a6.947,6.947,0,0,1-.726.041,2.753,2.753,0,0,1-.627-0.059,2.093,2.093,0,0,1-.769-0.558c-0.3-.281-0.671-0.658-1.036-1.061a9.167,9.167,0,0,1-1.529-2.081,4.567,4.567,0,0,1-.078-1.636,0.868,0.868,0,0,1,.711-0.973,2.157,2.157,0,0,1,1.326.833c0.307,0.317,3.742,3.82,4.524,4.617l0.469-.5a1.851,1.851,0,0,1-.573-0.839,1.385,1.385,0,0,1,.2-1.05c0.019-.038.039-0.078,0.06-0.122a21.763,21.763,0,0,1,3.207-3.292,0.631,0.631,0,0,1,.394-0.148,0.639,0.639,0,0,1,.558.384,0.532,0.532,0,0,1-.008.542c-0.149.2-2.325,2.5-2.608,2.8a0.5,0.5,0,0,0-.132.445,0.05,0.05,0,0,0,.043.014,0.781,0.781,0,0,0,.368-0.2c0.135-.137,2.364-2.4,2.564-2.594a0.55,0.55,0,0,1,.39-0.171,0.657,0.657,0,0,1,.566.407,0.5,0.5,0,0,1-.049.545c-0.187.22-2.436,2.751-2.532,2.858l-0.006.009a0.261,0.261,0,0,0-.062.322,0.048,0.048,0,0,0,.047.024,0.675,0.675,0,0,0,.322-0.167c0.113-.116,2.367-2.4,2.618-2.652a0.487,0.487,0,0,1,.351-0.142,0.878,0.878,0,0,1,.731.473,0.422,0.422,0,0,1-.046.455c-0.011.013-.025,0.033-0.047,0.059-0.629.784-1.212,1.466-1.734,2.028-1.4,1.511-1.921,1.686-2.19,1.686a0.465,0.465,0,0,1-.1-0.009,2.65,2.65,0,0,1-1.059-.531l-0.519.62,4.534,4.539a1.235,1.235,0,0,1,.273.873,1.036,1.036,0,0,1-.377.77,1.246,1.246,0,0,1-.786.264,0.979,0.979,0,0,1-.765-0.3c-0.146-.181-2.66-3.075-4.1-4.73l-4.366,4.744a1.065,1.065,0,0,1-.8.305h0Z" transform="translate(-576.438 -794.75)"/>
</svg>
