<svg xmlns="http://www.w3.org/2000/svg" width="50" height="50" viewBox="0 0 50 50">
  <defs>
    <style>
      .cls-1 {
        fill: #646464;
        fill-rule: evenodd;
      }
    </style>
  </defs>
  <path id="矩形_24" data-name="矩形 24" class="cls-1" d="M371.958,794c-2.533.351-3.659,4.746-3.991,6.519a87.149,87.149,0,0,0-.258,10.6c-0.674.386-2.4,1.376-4.564,2.623a38.427,38.427,0,0,0-3.027-3.1c-1.44-1.143-2.121.393-2.118,1.46s0,4.124,0,4.608c-3.935,2.282-7.836,4.564-9.195,5.429-3.082,1.96-1.625,5.77,0,5.6,1.461-.151,16.2-3.972,19.148-4.739,0.005,0.164.009,0.318,0.014,0.482a67.3,67.3,0,0,0,1.262,11.322c-1.006.939-4.339,4.04-6.417,5.877-2.526,2.233-.566,3.44.28,3.305,2.427-.39,7.635-1.932,8.062-2.059,0.21,0.847.509,1.381,0.841,1.386,0,0,0,0,0,.008a0.047,0.047,0,0,1,.006-0.009c0.332-.006.63-0.539,0.84-1.385,0.426,0.127,5.635,1.669,8.062,2.059,0.845,0.135,2.806-1.072.28-3.305-2.078-1.837-5.411-4.938-6.417-5.877a67.3,67.3,0,0,0,1.262-11.322c0-.164.009-0.318,0.014-0.482,2.947,0.767,17.687,4.588,19.148,4.739,1.625,0.169,3.082-3.641,0-5.6-1.359-.865-5.26-3.147-9.194-5.429,0-.484,0-3.526,0-4.608s-0.679-2.6-2.119-1.46a38.427,38.427,0,0,0-3.027,3.1c-2.166-1.247-3.89-2.237-4.564-2.623a87.149,87.149,0,0,0-.258-10.6c-0.332-1.773-1.718-6.257-4.075-6.519h0Z" transform="translate(-347 -794)"/>
</svg>
