<svg xmlns="http://www.w3.org/2000/svg" width="24.968" height="24.938" viewBox="0 0 24.968 24.938">
  <defs>
    <style>
      .cls-1 {
        fill: #424242;
        fill-rule: evenodd;
      }
    </style>
  </defs>
  <path id="行李_拷贝_5" data-name="行李 拷贝 5" class="cls-1" d="M666.924,794.736a12.48,12.48,0,1,0,12.483,12.48,12.482,12.482,0,0,0-12.483-12.48h0Zm0,23.307a10.827,10.827,0,1,1,10.831-10.827,10.828,10.828,0,0,1-10.831,10.827h0Zm3.4-16.193q1.457,0.427,2.673.824v4.459a6.344,6.344,0,0,1-2.012,4.67A9.238,9.238,0,0,1,667,814a9.144,9.144,0,0,1-3.987-2.2,6.349,6.349,0,0,1-2.013-4.67v-4.459c0.814-.264,1.707-0.539,2.673-0.824s2.078-.57,3.327-0.85c1.249,0.285,2.362.565,3.327,0.85h0Zm0.625,3.478-0.36-.334a0.1,0.1,0,0,0-.133,0l-3.53,3.286a0.125,0.125,0,0,1-.134,0l-2.29-1.622a0.072,0.072,0,0,0-.113.019l-0.394.49a0.092,0.092,0,0,0,.021.125l2.776,2.67a0.124,0.124,0,0,0,.134.02l4.023-4.524a0.094,0.094,0,0,0,0-.13h0Z" transform="translate(-654.438 -794.75)"/>
</svg>
