<svg xmlns="http://www.w3.org/2000/svg" width="26.875" height="31" viewBox="0 0 26.875 31">
  <defs>
    <style>
      .cls-1 {
        fill: #424242;
        fill-rule: evenodd;
      }
    </style>
  </defs>
  <path id="形状_79" data-name="形状 79" class="cls-1" d="M288.928,457.358v-5.123a1.42,1.42,0,0,0-2.783,0v5.123h-1v-6.24c-0.683-1.519-2.146-1.5-2.785,0v6.24h-1v-5.19c-0.6-1.27-2.11-1.544-2.785,0v5.19h-1v-4.006a1.442,1.442,0,0,0-2.784,0v4.006h-4.8v14.153h4.952c0.146,4.987,3.98,9.479,8.66,9.479s8.514-4.492,8.66-9.479h4.624V457.358h-7.956Zm7.028,13.112h-3.824v-6.058c-0.483-2.482-2.078-3.293-2.784,0v6.058H270.96V458.28h25v12.19ZM281,461.46l1.263,2.458h0.04v0.019h-1.576V464.5H282.3v0.838h-1.576v0.565H282.3v3.276h-1.187v0.566H285.6v-0.566h-1.127v-3.276h1.517v-0.565h-1.517V464.5h1.517v-0.566h-1.517v-0.156h-0.019l1.321-2.321v-0.019h0.992v-0.565h-2.722v0.565h0.713l-1.334,2.34h-0.208L282,461.441h0.665v-0.565h-2.721v0.565H281v0.019h0Z" transform="translate(-270 -450)"/>
</svg>
