<svg xmlns="http://www.w3.org/2000/svg" width="31.094" height="27" viewBox="0 0 31.094 27">
  <defs>
    <style>
      .cls-1 {
        fill: #424242;
        fill-rule: evenodd;
      }
    </style>
  </defs>
  <path id="形状_556_拷贝" data-name="形状 556 拷贝" class="cls-1" d="M285.857,1855.63a1.126,1.126,0,0,1-.514.96,6.442,6.442,0,0,1-1.288.71q-0.776.345-1.677,0.78a5.95,5.95,0,0,0-1.645,1.18h-0.59a8.146,8.146,0,0,1-2.222-.27,5.384,5.384,0,0,1-1.6-.69,3.1,3.1,0,0,1-.979-0.98,2.073,2.073,0,0,1-.326-1.1,1.2,1.2,0,0,1,.683-1.05,12.161,12.161,0,0,1,1.507-.75,13.851,13.851,0,0,0,1.507-.71,1.1,1.1,0,0,0,.683-0.96,1.765,1.765,0,0,0-.371-1.08c-0.25-.33-0.524-0.71-0.823-1.13a8.185,8.185,0,0,1-.822-1.49,5.44,5.44,0,0,1-.372-2.18,8.448,8.448,0,0,1,.2-1.86,5.417,5.417,0,0,1,.605-1.58,3.189,3.189,0,0,1,1.023-1.08,2.61,2.61,0,0,1,1.462-.4,4.127,4.127,0,0,1,1.864.37,13.887,13.887,0,0,0-.187,2.32,14.345,14.345,0,0,0,.326,3.31,11.325,11.325,0,0,0,.823,2.36c-0.309.41-.6,0.8-0.872,1.16a2.078,2.078,0,0,0-.4,1.28,0.851,0.851,0,0,0,.434.7,6.452,6.452,0,0,0,1.041.56q0.6,0.255,1.288.54a9.446,9.446,0,0,1,1.211.59,2.632,2.632,0,0,1,.032.49h0Zm15.406-2.88a0.775,0.775,0,0,0,.357.62,4.788,4.788,0,0,0,.886.53q0.525,0.24,1.166.48c0.423,0.16.812,0.32,1.166,0.49a4.334,4.334,0,0,1,.885.59,1,1,0,0,1,.358.76,1.788,1.788,0,0,1-.465,1.21,3.712,3.712,0,0,1-1.243.88,7.747,7.747,0,0,1-1.784.55,14.026,14.026,0,0,1-2.066.21,7.6,7.6,0,0,0-1.864-.91c-0.663-.22-1.288-0.41-1.878-0.59a9.049,9.049,0,0,1-1.52-.59,1.34,1.34,0,0,1-.761-0.94,1.438,1.438,0,0,1,.809-0.96,15.237,15.237,0,0,1,1.476-.7,11.921,11.921,0,0,0,1.43-.69,1.084,1.084,0,0,0,.635-0.93,1.731,1.731,0,0,0-.5-1.19,16.025,16.025,0,0,1-1.024-1.25,13,13,0,0,0,.822-2.58,16.338,16.338,0,0,0,.327-3.5,7.743,7.743,0,0,0-.046-0.86c-0.031-.29-0.065-0.58-0.107-0.87a2.666,2.666,0,0,1,1.461-.56,4.832,4.832,0,0,1,2.33.48,3.56,3.56,0,0,1,1.319,1.19,4.246,4.246,0,0,1,.59,1.54,8.773,8.773,0,0,1,.139,1.5,4.739,4.739,0,0,1-.451,2.24,7.457,7.457,0,0,1-.993,1.47c-0.361.42-.695,0.8-0.993,1.15a1.752,1.752,0,0,0-.465,1.23h0Zm-8.727,3.28a1.473,1.473,0,0,0,.576,1.15,7.921,7.921,0,0,0,1.444.95c0.58,0.29,1.212.58,1.9,0.85a16.344,16.344,0,0,1,1.9.88,6.477,6.477,0,0,1,1.444,1.05,1.843,1.843,0,0,1,.576,1.35,1.348,1.348,0,0,1-.871,1.01,11.782,11.782,0,0,1-2.3.88,21.716,21.716,0,0,1-3.291.63,29.914,29.914,0,0,1-3.819.23,29.174,29.174,0,0,1-3.961-.23,15.6,15.6,0,0,1-2.888-.62,5.652,5.652,0,0,1-1.77-.88,1.346,1.346,0,0,1-.6-0.99,1.832,1.832,0,0,1,.576-1.35,6.457,6.457,0,0,1,1.444-1.04,18.942,18.942,0,0,1,1.878-.85c0.674-.26,1.3-0.53,1.878-0.82a6.581,6.581,0,0,0,1.444-.94,1.589,1.589,0,0,0,.577-1.22,3.1,3.1,0,0,0-.295-1.34,8.408,8.408,0,0,0-.747-1.25q-0.447-.63-0.979-1.38a11.664,11.664,0,0,1-.979-1.67,10.911,10.911,0,0,1-.746-2.14,11.666,11.666,0,0,1-.3-2.78,10.152,10.152,0,0,1,1.288-5.47,4.4,4.4,0,0,1,3.992-2.03,7.716,7.716,0,0,1,3.572.69,4.864,4.864,0,0,1,1.972,1.75,5.829,5.829,0,0,1,.84,2.35,19.166,19.166,0,0,1,.17,2.52,12.14,12.14,0,0,1-.295,2.88,10.806,10.806,0,0,1-.729,2.11,10.58,10.58,0,0,1-.931,1.59c-0.329.47-.642,0.91-0.93,1.34a8.162,8.162,0,0,0-.729,1.3,3.453,3.453,0,0,0-.305,1.49h0Z" transform="translate(-275 -1838)"/>
</svg>
