<svg xmlns="http://www.w3.org/2000/svg" width="60" height="60" viewBox="0 0 60 60">
  <defs>
    <style>
      .cls-1 {
        fill: #f52d2d;
        fill-rule: evenodd;
      }
    </style>
  </defs>
  <path id="圆角矩形_530_拷贝" data-name="圆角矩形 530 拷贝" class="cls-1" d="M800,1579.99a30,30,0,1,1,30-30,30.035,30.035,0,0,1-30,30h0Zm0-56.55a26.555,26.555,0,1,0,26.559,26.55A26.584,26.584,0,0,0,800,1523.44h0Zm-1.913,11.68,0.405,20.38H801.4l0.406-20.38h-3.724Zm0.239,24.94a2.241,2.241,0,0,0-.7,1.66,2.209,2.209,0,0,0,.7,1.66,2.436,2.436,0,0,0,3.356,0,2.209,2.209,0,0,0,.7-1.66,2.241,2.241,0,0,0-.7-1.66A2.41,2.41,0,0,0,798.322,1560.06Z" transform="translate(-770 -1520)"/>
</svg>
