<svg xmlns="http://www.w3.org/2000/svg" width="14" height="16" viewBox="0 0 14 16">
  <defs>
    <style>
      .cls-1 {
        fill: #666;
        fill-rule: evenodd;
      }
    </style>
  </defs>
  <path id="_1" data-name="1" class="cls-1" d="M1275,204.6a0.571,0.571,0,0,1,.58-0.6h4.04a1.2,1.2,0,0,1,0,2.4h-2.31v11.2h2.31a1.2,1.2,0,0,1,0,2.4h-4.04a0.653,0.653,0,0,1-.58-0.6V204.6Zm9.38,5v1.2h-3.19a1.2,1.2,0,0,0,0,2.4h3.19v1.2a1.6,1.6,0,0,0,.18,1.012,0.565,0.565,0,0,0,.82,0l3.46-2.965a0.731,0.731,0,0,0,0-.913l-3.46-2.965a0.565,0.565,0,0,0-.82,0A1.444,1.444,0,0,0,1284.38,209.6Z" transform="translate(-1275 -204)"/>
</svg>
