<svg xmlns="http://www.w3.org/2000/svg" width="16" height="16" viewBox="0 0 16 16">
  <defs>
    <style>
      .cls-1 {
        fill: #7c7c7c;
        fill-rule: evenodd;
      }
    </style>
  </defs>
  <path id="_7" data-name="7" class="cls-1" d="M1273.5,165h3a0.5,0.5,0,0,0,0-1h-3A0.5,0.5,0,0,0,1273.5,165Zm0-3h4a0.5,0.5,0,0,0,0-1h-4A0.5,0.5,0,0,0,1273.5,162Zm0-3h4a0.5,0.5,0,0,0,0-1h-4A0.5,0.5,0,0,0,1273.5,159Zm3,8h-3a0.5,0.5,0,0,0,0,1h3A0.5,0.5,0,0,0,1276.5,167Zm4.5,4h5a3,3,0,0,0,3-3v-2a2.953,2.953,0,0,0-1.15-2.34,5.213,5.213,0,0,1-8.7,0A2.953,2.953,0,0,0,1278,166v2A3,3,0,0,0,1281,171Zm2.5-16a5.028,5.028,0,1,0,4.5,5A4.766,4.766,0,0,0,1283.5,155Z" transform="translate(-1273 -155)"/>
</svg>
