<svg id="组_1" data-name="组 1" xmlns="http://www.w3.org/2000/svg" width="66" height="66" viewBox="0 0 66 66">
  <defs>
    <style>
      .cls-1 {
        fill: #525252;
        fill-rule: evenodd;
      }
    </style>
  </defs>
  <path id="矩形_25_拷贝" data-name="矩形 25 拷贝" class="cls-1" d="M399,295a33,33,0,1,0,33,33,33,33,0,0,0-33-33h0Zm0,64.011A31.012,31.012,0,1,1,430.012,328,31.012,31.012,0,0,1,399,359.012h0Z" transform="translate(-366 -295)"/>
  <path id="时间icon" class="cls-1" d="M399,315.008A12.992,12.992,0,1,0,411.99,328,12.991,12.991,0,0,0,399,315.008h0ZM407,330h-7.988a1,1,0,0,1-1-.994v-9.014a1,1,0,0,1,2,0v8.019H407A0.995,0.995,0,1,1,407,330h0Zm-8-19a17,17,0,1,0,17,17,17,17,0,0,0-17-17h0Zm0,32a15,15,0,1,1,15-15,15,15,0,0,1-15,15h0Z" transform="translate(-366 -295)"/>
</svg>
