<svg xmlns="http://www.w3.org/2000/svg" width="17" height="21" viewBox="0 0 17 21">
  <defs>
    <style>
      .cls-1 {
        fill: #999;
        fill-rule: evenodd;
      }
    </style>
  </defs>
  <path id="圆角矩形_3" data-name="圆角矩形 3" class="cls-1" d="M307.5,552a5.542,5.542,0,0,1-2.584-.81,13.421,13.421,0,0,1-2.788-2.067,11.615,11.615,0,0,1-2.221-2.961,6.949,6.949,0,0,1-.906-3.276v-8.833l0.838-.023c0.121,0,.317-0.012.59-0.035a13.726,13.726,0,0,0,1.405-.247,10.853,10.853,0,0,0,1.859-.564A15.618,15.618,0,0,0,307,531.376l0.5-.376,0.5,0.376a15.618,15.618,0,0,0,3.309,1.808,10.826,10.826,0,0,0,1.859.564,13.679,13.679,0,0,0,1.405.247q0.408,0.035.59,0.035L316,534.053v8.833a6.972,6.972,0,0,1-.906,3.276,11.63,11.63,0,0,1-2.222,2.961,13.324,13.324,0,0,1-2.788,2.067,5.544,5.544,0,0,1-2.583.81h0Zm-6.776-16.255v7.141a5.218,5.218,0,0,0,.781,2.584,10.24,10.24,0,0,0,1.87,2.384,13,13,0,0,0,2.232,1.7,2.969,2.969,0,0,0,3.784,0,12.938,12.938,0,0,0,2.233-1.7,10.251,10.251,0,0,0,1.869-2.384,5.214,5.214,0,0,0,.782-2.584v-7.141a13.163,13.163,0,0,1-3.626-.917,20.876,20.876,0,0,1-3.15-1.668,19.5,19.5,0,0,1-3.151,1.668,13.163,13.163,0,0,1-3.626.917h0Zm6.323,10.453-3.6-3.172,1.111-1.338,2.312,2.02,4.4-5.215,1.292,1.175-5.507,6.53h0Z" transform="translate(-299 -531)"/>
</svg>
