<svg xmlns="http://www.w3.org/2000/svg" width="16" height="21" viewBox="0 0 16 21">
  <defs>
    <style>
      .cls-1 {
        fill: #158fe4;
        fill-rule: evenodd;
      }
    </style>
  </defs>
  <path class="cls-1" d="M311.932,460.122h0.383v-1.837c0-2.363-2.936-4.285-5.316-4.285s-5.317,1.922-5.317,4.285v1.837h0.384A3.055,3.055,0,0,0,299,463.163v8.8A3.056,3.056,0,0,0,302.066,475h9.866A3.056,3.056,0,0,0,315,471.958v-8.8A3.055,3.055,0,0,0,311.932,460.122Zm-8.35-1.837c0-1.323,2.084-2.4,3.417-2.4s3.417,1.076,3.417,2.4v1.837h-6.834v-1.837Zm9.514,13.673a1.161,1.161,0,0,1-1.164,1.156h-9.866a1.161,1.161,0,0,1-1.164-1.156v-8.8a1.161,1.161,0,0,1,1.164-1.155h9.866a1.161,1.161,0,0,1,1.164,1.155v8.8Zm-3.287-4.141a4.36,4.36,0,0,1-5.619,0,0.953,0.953,0,0,0-1.339.107,0.938,0.938,0,0,0,.108,1.329,6.267,6.267,0,0,0,8.081,0,0.938,0.938,0,0,0,.108-1.329A0.953,0.953,0,0,0,309.809,467.817Z" transform="translate(-299 -454)"/>
</svg>
