<svg xmlns="http://www.w3.org/2000/svg" width="17" height="21" viewBox="0 0 17 21">
  <defs>
    <style>
      .cls-1 {
        fill: #158fe4;
        fill-rule: evenodd;
      }
    </style>
  </defs>
  <path class="cls-1" d="M306.5,389.911c-2.834,0-5.14-2.672-5.14-5.956S303.666,378,306.5,378s5.139,2.672,5.139,5.956S309.334,389.911,306.5,389.911Zm0-10.112c-1.833,0-3.324,1.864-3.324,4.156s1.491,4.156,3.324,4.156,3.323-1.865,3.323-4.156S308.332,379.8,306.5,379.8Zm2.167,19.2c-0.33,0-.67,0-1.02-0.007-0.74-.006-1.555-0.006-2.3,0-2.677.025-4.795,0.043-6.135-1.273A4.964,4.964,0,0,1,298,394.009a5.053,5.053,0,0,1,1.315-3.358,0.912,0.912,0,0,1,1.28-.1,0.894,0.894,0,0,1,.1,1.269,3.274,3.274,0,0,0-.88,2.189,3.354,3.354,0,0,0,.681,2.434c0.8,0.788,2.583.773,4.841,0.752,0.751-.006,1.577-0.006,2.328,0,2.257,0.023,4.037.037,4.84-.752a3.354,3.354,0,0,0,.681-2.434,3.633,3.633,0,0,0-.981-2.1,0.894,0.894,0,0,1-.088-1.27,0.913,0.913,0,0,1,1.281-.087,5.291,5.291,0,0,1,1.6,3.452,4.963,4.963,0,0,1-1.218,3.713C312.617,398.867,310.865,399,308.667,399Z" transform="translate(-298 -378)"/>
</svg>
