<svg xmlns="http://www.w3.org/2000/svg" width="22.187" height="22.156" viewBox="0 0 22.187 22.156">
  <defs>
    <style>
      .cls-1 {
        fill: #d0d3d9;
        fill-rule: evenodd;
      }
    </style>
  </defs>
  <path id="形状_2" data-name="形状 2" class="cls-1" d="M536.969,111.928a11.088,11.088,0,1,0,11.1,11.088,11.094,11.094,0,0,0-11.1-11.088h0Zm5.345,15.143a0.965,0.965,0,0,1-1.366,1.363l-3.934-3.931-3.935,3.931a0.965,0.965,0,1,1-1.366-1.363l3.936-3.932-3.936-3.933a0.965,0.965,0,1,1,1.366-1.363l3.935,3.932L541.2,117.6a0.964,0.964,0,1,1,1.365,1.363l-4.182,4.179,3.936,3.932h0Z" transform="translate(-525.875 -111.938)"/>
</svg>
