<svg xmlns="http://www.w3.org/2000/svg" width="24" height="18" viewBox="0 0 24 18">
  <defs>
    <style>
      .cls-1 {
        fill: #85c3ee;
        fill-rule: evenodd;
      }
    </style>
  </defs>
  <path id="line_拷贝_35" data-name="line 拷贝 35" class="cls-1" d="M1146.91,1515c8.09,0,8.09,3,8.09,3v7a2.344,2.344,0,0,1-2.01,2.01h-12.16a2.155,2.155,0,0,1-1.82-1.89v-7.59S1139.72,1515,1146.91,1515Zm-6.54,13.01h13.29a1.52,1.52,0,0,1,1.33,1.25v1.66s0.16,2.08-7.99,2.08c-8,0-7.96-2.09-7.96-2.08v-1.66A1.52,1.52,0,0,1,1140.37,1528.01Zm-3.57-11.02a1.037,1.037,0,0,1,1.2,1.24v9.91c0,0.89-.35,1.85-1.2,1.85a2.247,2.247,0,0,1-1.8-2.47v-8.05C1135,1518.1,1135.95,1516.99,1136.8,1516.99Zm20.4,0a1.037,1.037,0,0,0-1.2,1.24v9.91c0,0.89.35,1.85,1.2,1.85a2.247,2.247,0,0,0,1.8-2.47v-8.05C1159,1518.1,1158.05,1516.99,1157.2,1516.99Z" transform="translate(-1135 -1515)"/>
</svg>
