<svg xmlns="http://www.w3.org/2000/svg" width="52" height="39.44" viewBox="0 0 52 39.44">
  <defs>
    <style>
      .cls-1 {
        fill: #cfcfcf;
        fill-rule: evenodd;
      }
    </style>
  </defs>
  <path id="line_拷贝_11" data-name="line 拷贝 11" class="cls-1" d="M740,1175.55c18.844,0,18,7.08,18,7.08v15.18c0,1.94-1.66,4.04-3,4.04H725a3.543,3.543,0,0,1-3-3.03v-17.2S723.262,1175.55,740,1175.55Zm-15,27.31h30a3.575,3.575,0,0,1,3,3.04v4.04c0,0.07.393,5.06-18,5.06-17.467,0-18-4.92-18-5.06v-4.04A3.575,3.575,0,0,1,725,1202.86Zm-7-24.27c2.008,0,3,1,3,3.03v23.27c0,2.03-.992,3.03-3,3.03s-4-1.67-4-5.06v-19.21C714,1180.53,715.992,1178.59,718,1178.59Zm44,0c-2.008,0-3,1-3,3.03v23.27c0,2.03.992,3.03,3,3.03s4-1.67,4-5.06v-19.21C766,1180.53,764.008,1178.59,762,1178.59Z" transform="translate(-714 -1175.56)"/>
</svg>
