<svg xmlns="http://www.w3.org/2000/svg" width="82" height="82" viewBox="0 0 82 82">
  <defs>
    <style>
      .cls-1 {
        fill: #525252;
        fill-rule: evenodd;
      }
    </style>
  </defs>
  <path id="餐食" class="cls-1" d="M749.149,1021.16a41,41,0,1,0,41,41,40.995,40.995,0,0,0-41-41h0Zm0,79.68a38.685,38.685,0,1,1,38.685-38.68,38.684,38.684,0,0,1-38.685,38.68h0Zm20.115-27.66a19.407,19.407,0,0,0-3.537-25.34,2.4,2.4,0,0,0,.684-0.66,2.371,2.371,0,1,0-4.281-1.8,19.411,19.411,0,0,0-24.9,5.9l32.031,21.9m-22.676-17.83-4.469-3.06c5.816-7.9,15.16-5.39,15.16-5.39s-8.82,2.31-10.691,8.45m0,0h0Zm25.406,20.15a2.756,2.756,0,0,1-2.954,2.5h-40.1a2.539,2.539,0,1,1,0-5.01h40.1a2.756,2.756,0,0,1,2.954,2.51h0m0,0h0Zm-32.3-12.2a6.412,6.412,0,0,1,4.865,4.19,6.124,6.124,0,0,0-4.288-3.28,0.049,0.049,0,0,0-.035-0.01,6.854,6.854,0,0,0-5.557,1.01l0.908,0.73c0.676,0.46-.574,2.07-1.251,1.62l-1.119-.62a4.176,4.176,0,0,0-.254.66A4.58,4.58,0,0,0,734,1072h22a8.041,8.041,0,0,0,2.7-4.69l-12.273-8.43c-3.109.58-5.5,2.11-6.738,4.42h0m0,0h0Zm-5.072,3.32,0.147-.17c0.407-.47-0.107-0.88-0.739-1.29l-4.514-3.44a1.607,1.607,0,0,0-1.442-.19c-0.171.06,0.4,0.64,0.289,0.78l-0.147.17c-0.106.12-.9-0.22-0.928-0.07a1.2,1.2,0,0,0,.609,1.18l5.14,2.83c0.632,0.41,1.179.67,1.585,0.2h0m0,0h0Z" transform="translate(-708.156 -1021.16)"/>
</svg>
