<svg xmlns="http://www.w3.org/2000/svg" width="26" height="19" viewBox="0 0 26 19">
  <defs>
    <style>
      .cls-1 {
        fill: #525252;
        fill-rule: evenodd;
      }
    </style>
  </defs>
  <path id="矩形_22" data-name="矩形 22" class="cls-1" d="M255.511,196H230.488a0.485,0.485,0,0,0-.488.481v18.037a0.485,0.485,0,0,0,.488.482h25.023a0.486,0.486,0,0,0,.489-0.482V196.481a0.486,0.486,0,0,0-.489-0.481h0Zm-23.763,2.749h3.539v1.162h-3.539v-1.162h0Zm7.455,7.613h-7.455V205.2H239.2v1.162h0Zm0-3.306h-7.455v-1.162H239.2v1.162h0Zm14.585,4.322-4.743-1.15-0.112,3.405a2.477,2.477,0,0,0-.007.254s0.066,0.058.124,0.1l0.744,0.545,0.144,1.076a0.317,0.317,0,0,1-.048-0.01l-1.1-.315a0.2,0.2,0,0,1-.161-0.2,2.469,2.469,0,0,1-.158.338,1.1,1.1,0,0,1-.478.576h0a1.112,1.112,0,0,1-.479-0.576,2.758,2.758,0,0,1-.158-0.338,0.2,0.2,0,0,1-.16.2l-1.1.315a0.328,0.328,0,0,1-.049.01l0.146-1.076,0.744-.545c0.057-.043.124-0.1,0.124-0.1a2.477,2.477,0,0,0-.007-0.254l-0.112-3.405-4.744,1.15a0.149,0.149,0,0,1-.2-0.168l0.139-1.042a0.453,0.453,0,0,1,.248-0.317l4.569-1.911,0.1-3.39a1.948,1.948,0,0,1,.56-1.44,0.831,0.831,0,0,1,.381-0.106h0a0.819,0.819,0,0,1,.381.106,1.944,1.944,0,0,1,.559,1.44l0.1,3.39,4.569,1.911a0.451,0.451,0,0,1,.248.317l0.14,1.042a0.149,0.149,0,0,1-.2.168h0Z" transform="translate(-230 -196)"/>
</svg>
