<svg xmlns="http://www.w3.org/2000/svg" width="25.03" height="25.062" viewBox="0 0 25.03 25.062">
  <defs>
    <style>
      .cls-1 {
        fill: #525252;
        fill-rule: evenodd;
      }
    </style>
  </defs>
  <path id="icon" class="cls-1" d="M1143.39,881.75a12.531,12.531,0,1,1-12.51,12.531A12.528,12.528,0,0,1,1143.39,881.75Zm2.81,9.571s2.04-.719,1.02,1.079l-2.69,3.055,5.69,2.368-1.64.973-3.87-.3-10.05-4.46a1.349,1.349,0,0,1-.26-1.4,1.432,1.432,0,0,1,1.35-.146l3.68,1.4s0.42,0.42,1.98-.3Zm6.77,3.415,0.12,0.838-2.29,1.779-2.38-1.06Z" transform="translate(-1130.88 -881.75)"/>
</svg>
