<svg xmlns="http://www.w3.org/2000/svg" width="20" height="16" viewBox="0 0 20 16">
  <defs>
    <style>
      .cls-1 {
        fill: #2f3033;
        fill-rule: evenodd;
      }
    </style>
  </defs>
  <path id="圆角矩形_531" data-name="圆角矩形 531" class="cls-1" d="M250.372,1431H231v-14.16a0.615,0.615,0,0,1,.625-0.61c0.346,0,.375.43,0.375,0.77v13h18c0.346,0,1,.04,1,0.38a0.627,0.627,0,0,1-.628.62h0Zm-1.707-2.99h-1.334a1.248,1.248,0,0,1-1.334-1.13v-6.75a1.247,1.247,0,0,1,1.334-1.13h1.334a1.248,1.248,0,0,1,1.334,1.13v6.75a1.248,1.248,0,0,1-1.334,1.13h0Zm-6,0h-1.334a1.267,1.267,0,0,1-1.334-1.19v-10.64a1.264,1.264,0,0,1,1.334-1.18h1.334a1.266,1.266,0,0,1,1.334,1.18v10.64a1.268,1.268,0,0,1-1.334,1.19h0Zm-6,0h-1.334a1.265,1.265,0,0,1-1.334-1.17v-4.67a1.257,1.257,0,0,1,1.334-1.17h1.334a1.259,1.259,0,0,1,1.334,1.17v4.67a1.263,1.263,0,0,1-1.334,1.17h0Z" transform="translate(-231 -1415)"/>
</svg>
