<svg xmlns="http://www.w3.org/2000/svg" width="82" height="82" viewBox="0 0 82 82">
  <defs>
    <style>
      .cls-1 {
        fill: #525252;
        fill-rule: evenodd;
      }
    </style>
  </defs>
  <path id="选座" class="cls-1" d="M943.949,1021.16a41,41,0,1,0,41,41,40.995,40.995,0,0,0-41-41h0Zm0,79.68a38.685,38.685,0,1,1,38.685-38.68,38.684,38.684,0,0,1-38.685,38.68h0Zm-5.981-51.69a5.845,5.845,0,1,0-5.845-5.84,5.845,5.845,0,0,0,5.845,5.84h0ZM955,1062h-9l-2.264-7.63a5.192,5.192,0,1,0-10.21,1.89l3.064,8.93c0.461,2.3,2.3,3.88,5.237,3.88L954,1069v14a3.012,3.012,0,1,0,6,0v-16c-0.011-2.14-2.142-5.08-4.959-5.02Zm-6,9h-8c-4.517,0-4.681-1.04-5.706-5.44a30.915,30.915,0,0,0-2.671-6.72,2.332,2.332,0,1,0-4.562.96,35.459,35.459,0,0,1,2.816,7.32c1.714,7.72,2.707,7.88,10.123,7.88h8c3.211,0,3.271-4,0-4h0Z" transform="translate(-902.938 -1021.16)"/>
</svg>
