<svg xmlns="http://www.w3.org/2000/svg" width="29" height="17" viewBox="0 0 29 17">
  <defs>
    <style>
      .cls-1 {
        fill: #525252;
        fill-rule: evenodd;
      }
    </style>
  </defs>
  <path id="矩形_23" data-name="矩形 23" class="cls-1" d="M242.009,970.006h5v8h-5v-8h0m0,0h0ZM231.059,965A28.067,28.067,0,0,0,230,973.41a24.515,24.515,0,0,0,1.189,8.59,24.771,24.771,0,0,0,5.831-2.52A36.732,36.732,0,0,0,241,977v-2h-2c-1.51,0-.99-3,0-3h2v-2a26.748,26.748,0,0,0-3.9-2.79,17.3,17.3,0,0,0-6.043-2.21h0m0,0h0Zm20.878,2.21A27.489,27.489,0,0,0,248,970v2h3c0.407,0,.521,3,0,3h-3v2a40.641,40.641,0,0,0,4.019,2.481A24.8,24.8,0,0,0,257.812,982,24.539,24.539,0,0,0,259,973.41,28.142,28.142,0,0,0,257.942,965a17.339,17.339,0,0,0-6,2.209h0m0,0h0Z" transform="translate(-230 -965)"/>
</svg>
