<svg xmlns="http://www.w3.org/2000/svg" width="25.03" height="25.062" viewBox="0 0 25.03 25.062">
  <defs>
    <style>
      .cls-1 {
        fill: #525252;
        fill-rule: evenodd;
      }
    </style>
  </defs>
  <path id="icon_拷贝" data-name="icon 拷贝" class="cls-1" d="M1143.39,188.75a12.531,12.531,0,1,1-12.51,12.531A12.528,12.528,0,0,1,1143.39,188.75ZM1141.85,206h-2.91a0.814,0.814,0,0,1-.63-0.339,1.783,1.783,0,0,1-.26-0.749,1.123,1.123,0,0,1,.26-0.618,1.1,1.1,0,0,1,.69-0.3l2.85,0.027v-1.044l-2.91-.015a0.886,0.886,0,0,1-.63-0.286,1.689,1.689,0,0,1-.26-0.774,1.225,1.225,0,0,1,.26-0.649,0.916,0.916,0,0,1,.63-0.271h2.17l-2.02-3.308a2.283,2.283,0,0,1-.29-0.46,1.249,1.249,0,0,1-.12-0.611,1.419,1.419,0,0,1,.3-0.686,1.317,1.317,0,0,1,.85-0.339,1.266,1.266,0,0,1,.65.249,2.164,2.164,0,0,1,.46.475l2.29,4.191,2.52-4.221a1.849,1.849,0,0,1,.47-0.453,1.462,1.462,0,0,1,.65-0.241,2.273,2.273,0,0,1,.41.061,0.823,0.823,0,0,1,.33.151,0.84,0.84,0,0,1,.25.3,1.877,1.877,0,0,1,.14.513,1.342,1.342,0,0,1-.3.829l-2.34,3.549L1148,201c0.26,0.02.04-.026,0.19,0.26a1.116,1.116,0,0,1,0,1.437,0.9,0.9,0,0,1-.63.3H1145v1h2a2.087,2.087,0,0,1,1,0,2.637,2.637,0,0,1,.45.977,1.313,1.313,0,0,1-.26.718,0.854,0.854,0,0,1-.61.294L1145,206v2c-0.04.854-.83,0.978-1.72,0.978a1.524,1.524,0,0,1-1.03-.316,1.272,1.272,0,0,1-.4-0.965V206h0Z" transform="translate(-1130.88 -188.75)"/>
</svg>
