<svg xmlns="http://www.w3.org/2000/svg" width="32" height="31.031" viewBox="0 0 32 31.031">
  <defs>
    <style>
      .cls-1 {
        fill: #525252;
        fill-rule: evenodd;
      }
    </style>
  </defs>
  <path id="形状_10" data-name="形状 10" class="cls-1" d="M248.208,587.9c0.358,1.077.389,1.1,1.38,1.082,2.49-.051,4.981-0.133,7.471,0a7.834,7.834,0,0,1,3.953,1.086c1.308,0.84,1.3,2.076-.034,2.9a8.14,8.14,0,0,1-4.227,1.083c-2.38.056-4.76,0.071-7.14-.038a1.066,1.066,0,0,0-1.3.649c-0.152.407-.04,0.483,0.318,0.462a4.789,4.789,0,0,1,.667.008,0.957,0.957,0,0,1,.99,1.174,0.915,0.915,0,0,1-1.034,1.054,9.587,9.587,0,0,1-1.6-.011,0.785,0.785,0,0,0-.922.547c-1.253,2.554-2.539,5.091-3.794,7.644a2.343,2.343,0,0,1-1.742,1.436c-1.125.2-1.618-.378-1.247-1.5,0.874-2.645,1.737-5.293,2.631-7.93a18.454,18.454,0,0,0,.646-3.082c0.074-.467-0.083-0.6-0.525-0.6-2.4-.034-4.8-0.091-7.2-0.328a0.691,0.691,0,0,0-.761.4q-0.641,1.165-1.314,2.311a1.044,1.044,0,0,1-1.47.506,0.675,0.675,0,0,1-.36-0.907c0.179-.8.313-1.62,0.533-2.411a0.611,0.611,0,0,0-.523-0.915,6.919,6.919,0,0,1-1.01-.354,0.74,0.74,0,0,1-.6-0.656,0.7,0.7,0,0,1,.571-0.672,11.289,11.289,0,0,1,1.2-.418,0.483,0.483,0,0,0,.391-0.7c-0.2-.821-0.366-1.652-0.546-2.478-0.086-.394-0.175-0.831.312-0.981a1.014,1.014,0,0,1,1.373.291c0.473,0.8.951,1.6,1.392,2.423a0.83,0.83,0,0,0,.922.488,64.6,64.6,0,0,1,7.065-.3c0.5,0.006.609-.183,0.542-0.657a18.171,18.171,0,0,0-.753-3.408c-0.867-2.525-1.7-5.065-2.533-7.6-0.367-1.11.155-1.712,1.265-1.48a2.217,2.217,0,0,1,1.64,1.261c1.29,2.611,2.618,5.2,3.909,7.814a0.8,0.8,0,0,0,.919.551,11.007,11.007,0,0,1,1.731.023,0.9,0.9,0,0,1,.887,1.054,0.92,0.92,0,0,1-.825,1.115c-0.4.043-.8,0.038-1.258,0.057h0Z" transform="translate(-230 -575.969)"/>
</svg>
