<svg xmlns="http://www.w3.org/2000/svg" width="20.874" height="21.281" viewBox="0 0 20.874 21.281">
  <defs>
    <style>
      .cls-1 {
        fill: #fff;
        fill-rule: evenodd;
      }
    </style>
  </defs>
  <path id="control" class="cls-1" d="M234.206,567.976a3.638,3.638,0,1,0-7.275,0,3.709,3.709,0,0,0,1.018,2.561,9.9,9.9,0,0,0,4.295,10.595l0.731-3.036a6.938,6.938,0,0,1-2.431-5.29,7.436,7.436,0,0,1,.09-1.134,3.667,3.667,0,0,0,3.572-3.7h0Zm3.12-2.069a6.744,6.744,0,0,1,3.449.951,3.81,3.81,0,0,0-.246,1.335,3.638,3.638,0,1,0,3.637-3.687,3.6,3.6,0,0,0-1.338.258,9.534,9.534,0,0,0-9.41-.917l1.667,2.452a6.514,6.514,0,0,1,2.241-.392h0Zm6.783,7.216a6.889,6.889,0,0,1-3.613,5.79,3.629,3.629,0,0,0-3.243-2.019,3.7,3.7,0,1,0,3.358,5.131,9.8,9.8,0,0,0,6.363-9.219q0-.324-0.024-0.65l-2.841.967h0Z" transform="translate(-226.938 -563)"/>
</svg>
