<svg xmlns="http://www.w3.org/2000/svg" width="19.688" height="19" viewBox="0 0 19.688 19">
  <defs>
    <style>
      .cls-1 {
        fill: #fff;
        fill-rule: evenodd;
      }
    </style>
  </defs>
  <path id="dialer" class="cls-1" d="M233.991,778a3,3,0,0,1,3,3h-3v3a3,3,0,1,1,0-5.992h0ZM235,785.011V782h3a3.015,3.015,0,0,1-3,3.009h0Zm5.552-1.024h3.883a0.535,0.535,0,0,1,.566.5,0.543,0.543,0,0,1-.566.506h-3.883a0.541,0.541,0,0,1-.555-0.506,0.532,0.532,0,0,1,.555-0.5h0Zm0-2.99h3.883a0.535,0.535,0,0,1,.566.5,0.543,0.543,0,0,1-.566.506h-3.883a0.541,0.541,0,0,1-.555-0.506,0.533,0.533,0,0,1,.555-0.5h0Zm0-3h3.883a0.543,0.543,0,0,1,.566.506,0.535,0.535,0,0,1-.566.5h-3.883a0.532,0.532,0,0,1-.555-0.5,0.54,0.54,0,0,1,.555-0.506h0Zm-10.815,9.988h16.526a0.731,0.731,0,0,0,.724-0.722V775.721a0.724,0.724,0,0,0-.724-0.723H229.737a0.731,0.731,0,0,0-.723.723v11.543a0.73,0.73,0,0,0,.723.722h0ZM247,790H229a0.834,0.834,0,0,0-.7.432,0.721,0.721,0,0,0,.361.656L233,791l-1.163,2.252a0.54,0.54,0,0,0,.157.679,0.691,0.691,0,0,0,.76-0.117L235,791h7l1.752,2.8a0.568,0.568,0,0,0,.688.141,0.446,0.446,0,0,0,.181-0.574L244,791h3a1.64,1.64,0,0,0,1.01-.579A1.534,1.534,0,0,0,247,790h0Z" transform="translate(-228.312 -775)"/>
</svg>
