<svg xmlns="http://www.w3.org/2000/svg" width="18" height="19" viewBox="0 0 18 19">
  <defs>
    <style>
      .cls-1 {
        fill: #fff;
        fill-rule: evenodd;
      }
    </style>
  </defs>
  <path id="cancel" class="cls-1" d="M230.986,650.5a0.5,0.5,0,0,1-.5.5h-2a0.5,0.5,0,0,1-.5-0.5v-3a0.5,0.5,0,0,1,.5-0.5h2a0.5,0.5,0,0,1,.5.5v3h0Zm5.017-.034a0.518,0.518,0,0,1-.5.534H233.51a0.518,0.518,0,0,1-.5-0.534v-6.941a0.518,0.518,0,0,1,.5-0.534H235.5a0.517,0.517,0,0,1,.5.534v6.941h0Zm5-.011a0.525,0.525,0,0,1-.5.545h-2a0.525,0.525,0,0,1-.5-0.545v-4.9a0.524,0.524,0,0,1,.5-0.545h2a0.524,0.524,0,0,1,.5.545v4.9h0Zm4.988-.006a0.528,0.528,0,0,1-.5.551h-2a0.528,0.528,0,0,1-.5-0.551v-9.911a0.528,0.528,0,0,1,.5-0.551h2a0.528,0.528,0,0,1,.5.551v9.911h0Zm-1.543-15.223L246,637v-5h-5l1.916,1.668-1.765,1.8h0l-2.6,2.653-2.254-2.3,0,0-1.538-1.557-6.767,6.887v3.082l0.026,0.016,6.742-6.866,3.787,3.857,1.529-1.557,0,0,3.928-4,0.442-.451h0Z" transform="translate(-228 -632)"/>
</svg>
