<svg xmlns="http://www.w3.org/2000/svg" width="20.875" height="17.031" viewBox="0 0 20.875 17.031">
  <defs>
    <style>
      .cls-1 {
        fill: #fff;
        fill-rule: evenodd;
      }
    </style>
  </defs>
  <path id="touchpad" class="cls-1" d="M227.731,721.118s-0.036-2.206.436-2.674,0.664-1.31,3.167-1.694,2.241-1.751,2.322-1.708c-0.015-.517-0.064-1.246-0.064-1.246a3.376,3.376,0,0,1-1.688-1.708,0.919,0.919,0,0,1-.777-0.985s-0.245-1.761.3-1.724a0.289,0.289,0,0,0,.267-0.4c-0.029-.673-0.028-1.978.015-2.426a2.079,2.079,0,0,1,1.272-1.842,4.736,4.736,0,0,1,.847-0.134,1.832,1.832,0,0,1,.779-0.225l1.167-.248c0.563,0,.923.953,1.225,1a3.828,3.828,0,0,1,1-.018c0.908,0.18.782,1.462,0.825,1.912a11.1,11.1,0,0,1,.037,2.072c-0.087.4,0.183,0.359,0.183,0.359,0.649,0,.445,1.724.445,1.724a1.549,1.549,0,0,1-.975.907,4.656,4.656,0,0,1-1.61,1.97s-0.006.941-.01,1.145c0.017,0.081-.14,1.251,1.994,1.581,2.5,0.384,2.936,1.226,3.407,1.694s0.523,2.674.523,2.674H227.731M243.5,721.1a9.82,9.82,0,0,0-.5-2.927,3.711,3.711,0,0,0-1.774-1.56,7.286,7.286,0,0,1,.075-1,2.574,2.574,0,0,1-1.128-1.31,0.7,0.7,0,0,1-.6-0.755s-0.1-1.35.312-1.321c0,0,.386,0,0.319-0.31-0.022-.515-0.013-1.516.02-1.86a1.437,1.437,0,0,1,.821-1.411,4.18,4.18,0,0,1,.526-0.1,1.382,1.382,0,0,1,.6-0.173l0.9-.2c0.43,0,.706.677,0.938,0.712a1.059,1.059,0,0,1,.486-0.014c0.7,0.138.568,1.122,0.6,1.465a11.335,11.335,0,0,1,.02,1.654c-0.066.31,0.14,0.275,0.14,0.275,0.5,0,.464,1.322.464,1.322a0.846,0.846,0,0,1-.561.694,2.994,2.994,0,0,1-1.336,1.405s-0.026.663-.029,0.819a1.88,1.88,0,0,0,1.768,1.375,3.486,3.486,0,0,1,2.611,1.3,4.7,4.7,0,0,1,.441,1.922H243.5m0,0h0Z" transform="translate(-227.719 -704.094)"/>
</svg>
