<svg id="组_206" data-name="组 206" xmlns="http://www.w3.org/2000/svg" xmlns:xlink="http://www.w3.org/1999/xlink" width="42.219" height="43.594" viewBox="0 0 42.219 43.594">
  <defs>
    <style>
      .cls-1, .cls-3 {
        fill: #158fe4;
      }

      .cls-2 {
        fill: #fff;
        filter: url(#filter);
      }

      .cls-3 {
        fill-rule: evenodd;
      }
    </style>
    <filter id="filter" x="1.219" y="2.594" width="41" height="41" filterUnits="userSpaceOnUse">
      <feOffset result="offset" dx="1" dy="1.732" in="SourceAlpha"/>
      <feGaussianBlur result="blur" stdDeviation="2.236"/>
      <feFlood result="flood" flood-opacity="0.05"/>
      <feComposite result="composite" operator="in" in2="blur"/>
      <feBlend result="blend" in="SourceGraphic"/>
    </filter>
  </defs>
  <circle id="椭圆_1_拷贝_2" data-name="椭圆 1 拷贝 2" class="cls-1" cx="20.454" cy="20.453" r="20.454"/>
  <circle id="椭圆_1_拷贝_3" data-name="椭圆 1 拷贝 3" class="cls-2" cx="20.219" cy="20.594" r="16"/>
  <path id="形状_10_拷贝" data-name="形状 10 拷贝" class="cls-3" d="M929.883,202.2c0.19,0.553.206,0.567,0.731,0.556,1.317-.026,2.636-0.069,3.953,0a4.23,4.23,0,0,1,2.092.559,0.794,0.794,0,0,1-.018,1.493,4.406,4.406,0,0,1-2.237.557c-1.259.029-2.519,0.037-3.778-.02a0.568,0.568,0,0,0-.687.334c-0.081.21-.021,0.248,0.168,0.238a2.6,2.6,0,0,1,.353,0,0.5,0.5,0,0,1,.524.6,0.477,0.477,0,0,1-.547.542,5.307,5.307,0,0,1-.846,0,0.416,0.416,0,0,0-.488.281c-0.663,1.313-1.344,2.617-2.008,3.93a1.233,1.233,0,0,1-.922.738c-0.6.105-.856-0.194-0.659-0.771,0.462-1.36.919-2.721,1.392-4.077a9.269,9.269,0,0,0,.341-1.585c0.039-.24-0.043-0.307-0.277-0.31-1.271-.017-2.542-0.047-3.809-0.168a0.368,0.368,0,0,0-.4.207c-0.225.4-.458,0.8-0.7,1.189a0.56,0.56,0,0,1-.778.26,0.344,0.344,0,0,1-.19-0.467c0.094-.413.165-0.832,0.282-1.239a0.314,0.314,0,0,0-.277-0.47,3.824,3.824,0,0,1-.534-0.183,0.384,0.384,0,0,1-.316-0.337,0.365,0.365,0,0,1,.3-0.345,6,6,0,0,1,.635-0.215,0.248,0.248,0,0,0,.207-0.358c-0.107-.423-0.193-0.85-0.289-1.275-0.045-.2-0.092-0.427.165-0.5a0.547,0.547,0,0,1,.727.15c0.25,0.412.5,0.823,0.737,1.245a0.441,0.441,0,0,0,.488.251,35.342,35.342,0,0,1,3.738-.152c0.263,0,.323-0.094.287-0.338a9.182,9.182,0,0,0-.4-1.752c-0.459-1.3-.9-2.6-1.341-3.908-0.194-.57.082-0.88,0.67-0.761a1.17,1.17,0,0,1,.867.648c0.683,1.343,1.386,2.675,2.069,4.018a0.421,0.421,0,0,0,.486.283,6.1,6.1,0,0,1,.916.012,0.466,0.466,0,0,1,.47.542,0.476,0.476,0,0,1-.437.573c-0.209.022-.421,0.02-0.665,0.03h0Z" transform="translate(-907.781 -183.406)"/>
</svg>
