<svg xmlns="http://www.w3.org/2000/svg" width="18" height="18" viewBox="0 0 18 18">
  <defs>
    <style>
      .cls-1 {
        fill: #999;
        fill-rule: evenodd;
      }
    </style>
  </defs>
  <path id="椭圆_2" data-name="椭圆 2" class="cls-1" d="M905,296a9,9,0,1,1-9,9A9,9,0,0,1,905,296Zm3.771,12.771a0.763,0.763,0,0,1-1.079,0l-2.7-2.7-2.7,2.7a0.763,0.763,0,0,1-1.078-1.079l2.7-2.7-2.7-2.7a0.762,0.762,0,0,1,1.078-1.078l2.7,2.7,2.7-2.7a0.763,0.763,0,0,1,1.079,1.078l-2.7,2.7,2.7,2.7A0.763,0.763,0,0,1,908.771,308.771Z" transform="translate(-896 -296)"/>
</svg>
