<svg xmlns="http://www.w3.org/2000/svg" width="28.406" height="26.781" viewBox="0 0 28.406 26.781">
  <defs>
    <style>
      .cls-1 {
        fill: #525252;
        fill-rule: evenodd;
      }
    </style>
  </defs>
  <path id="形状_10_拷贝_2" data-name="形状 10 拷贝 2" class="cls-1" d="M795.673,694.671c0.318,0.928.346,0.95,1.225,0.933,2.211-.044,4.422-0.115,6.632,0a7.112,7.112,0,0,1,3.509.937c1.161,0.724,1.15,1.789-.03,2.5a7.391,7.391,0,0,1-3.753.935c-2.112.048-4.225,0.061-6.337-.033a0.954,0.954,0,0,0-1.153.559c-0.135.351-.036,0.416,0.283,0.4a4.5,4.5,0,0,1,.592.006,0.834,0.834,0,0,1,.879,1.012,0.8,0.8,0,0,1-.918.909,8.739,8.739,0,0,1-1.42-.009,0.7,0.7,0,0,0-.818.472c-1.112,2.2-2.254,4.388-3.367,6.589a2.069,2.069,0,0,1-1.547,1.238c-1,.175-1.436-0.326-1.107-1.294,0.776-2.279,1.542-4.562,2.336-6.836a15.515,15.515,0,0,0,.573-2.657c0.065-.4-0.073-0.514-0.466-0.52-2.132-.029-4.264-0.078-6.388-0.282a0.619,0.619,0,0,0-.676.348c-0.378.67-.769,1.333-1.166,1.993a0.939,0.939,0,0,1-1.305.436,0.576,0.576,0,0,1-.32-0.783c0.159-.692.278-1.395,0.474-2.077a0.527,0.527,0,0,0-.465-0.789,6.355,6.355,0,0,1-.9-0.306,0.644,0.644,0,0,1-.529-0.565,0.613,0.613,0,0,1,.507-0.58,10.667,10.667,0,0,1,1.065-.36,0.416,0.416,0,0,0,.347-0.6c-0.179-.707-0.325-1.424-0.485-2.136-0.076-.339-0.155-0.716.277-0.846a0.918,0.918,0,0,1,1.219.251c0.42,0.692.844,1.381,1.235,2.089a0.743,0.743,0,0,0,.819.421,58.874,58.874,0,0,1,6.271-.255c0.442,0,.541-0.158.481-0.567a15.317,15.317,0,0,0-.668-2.938c-0.769-2.177-1.5-4.366-2.249-6.552-0.325-.957.138-1.477,1.123-1.276a1.96,1.96,0,0,1,1.456,1.086c1.145,2.252,2.324,4.486,3.47,6.737a0.707,0.707,0,0,0,.816.475,10.111,10.111,0,0,1,1.536.02,0.781,0.781,0,0,1,.787.908,0.8,0.8,0,0,1-.732.961c-0.351.038-.706,0.033-1.117,0.05h0Z" transform="translate(-779.5 -684.375)"/>
</svg>
