<svg xmlns="http://www.w3.org/2000/svg" width="20" height="20" viewBox="0 0 20 20">
  <defs>
    <style>
      .cls-1 {
        fill: #158fe4;
        fill-rule: evenodd;
      }
    </style>
  </defs>
  <path id="问号" class="cls-1" d="M690,367a10,10,0,1,0,10,10,10,10,0,0,0-10-10h0Zm0,18.25a8.25,8.25,0,1,1,8.25-8.25,8.25,8.25,0,0,1-8.25,8.25h0Zm-0.289-3.872a1.1,1.1,0,1,0,.8.322,1.086,1.086,0,0,0-.8-0.322h0Zm2.747-9.62a2.754,2.754,0,0,0-1.048-.586,4.115,4.115,0,0,0-1.32-.173,4.747,4.747,0,0,0-1.361.222,3.871,3.871,0,0,0-1.106.553,2.631,2.631,0,0,0-.743.833,2.153,2.153,0,0,0-.272,1.065,0.85,0.85,0,0,0,.215.627,1.027,1.027,0,0,0,.709.231,1.551,1.551,0,0,0,.776-0.215,0.693,0.693,0,0,0,.379-0.643,0.656,0.656,0,0,1,.413-0.627,2.316,2.316,0,0,1,.94-0.215,1.577,1.577,0,0,1,.908.223,1,1,0,0,1,.38.916,2.321,2.321,0,0,1-.05.5,1.833,1.833,0,0,1-.165.446,2.654,2.654,0,0,1-.322.47q-0.206.248-.5,0.545a5.077,5.077,0,0,0-.693.817,5.863,5.863,0,0,0-.5.874,5.632,5.632,0,0,0-.305.825,2.516,2.516,0,0,0-.108.652,0.857,0.857,0,0,0,.3.734,1.173,1.173,0,0,0,.727.223,1.122,1.122,0,0,0,.725-0.239,0.868,0.868,0,0,0,.3-0.718,3.692,3.692,0,0,1,.042-0.578,1.655,1.655,0,0,1,.19-0.536,3.817,3.817,0,0,1,.429-0.61,10.013,10.013,0,0,1,.759-0.8,3.879,3.879,0,0,0,.948-1.262,3.49,3.49,0,0,0,.256-1.246,3.278,3.278,0,0,0-.223-1.337,2.67,2.67,0,0,0-.676-0.973h0Z" transform="translate(-680 -367)"/>
</svg>
